<!DOCTYPE svg PUBLIC "-//W3C//DTD SVG 1.1//EN" "http://www.w3.org/Graphics/SVG/1.1/DTD/svg11.dtd">
<!-- Uploaded to: SVG Repo, www.svgrepo.com, Transformed by: SVG Repo Mixer Tools -->
<svg width="64px" height="64px" viewBox="-2.4 -2.4 28.80 28.80" fill="none" xmlns="http://www.w3.org/2000/svg">
<g id="SVGRepo_bgCarrier" stroke-width="0" transform="translate(3.84,3.84), scale(0.68)">
<rect x="-2.4" y="-2.4" width="28.80" height="28.80" rx="14.4" fill="#4731d4" strokewidth="0"/>
</g>
<g id="SVGRepo_tracerCarrier" stroke-linecap="round" stroke-linejoin="round" stroke="#fffff" stroke-width="4.8"> <path opacity="0.5" d="M12 22C17.5228 22 22 17.5228 22 12C22 6.47715 17.5228 2 12 2C6.47715 2 2 6.47715 2 12C2 17.5228 6.47715 22 12 22Z" stroke="#ffffff" stroke-width="1.5"/> <path d="M15.5 9L15.6716 9.17157C17.0049 10.5049 17.6716 11.1716 17.6716 12C17.6716 12.8284 17.0049 13.4951 15.6716 14.8284L15.5 15" stroke="#ffffff" stroke-width="1.5" stroke-linecap="round"/> <path d="M13.2942 7.17041L12.0001 12L10.706 16.8297" stroke="#ffffff" stroke-width="1.5" stroke-linecap="round"/> <path d="M8.49994 9L8.32837 9.17157C6.99504 10.5049 6.32837 11.1716 6.32837 12C6.32837 12.8284 6.99504 13.4951 8.32837 14.8284L8.49994 15" stroke="#ffffff" stroke-width="1.5" stroke-linecap="round"/> </g>
<g id="SVGRepo_iconCarrier"> <path opacity="0.5" d="M12 22C17.5228 22 22 17.5228 22 12C22 6.47715 17.5228 2 12 2C6.47715 2 2 6.47715 2 12C2 17.5228 6.47715 22 12 22Z" stroke="#ffffff" stroke-width="1.5"/> <path d="M15.5 9L15.6716 9.17157C17.0049 10.5049 17.6716 11.1716 17.6716 12C17.6716 12.8284 17.0049 13.4951 15.6716 14.8284L15.5 15" stroke="#ffffff" stroke-width="1.5" stroke-linecap="round"/> <path d="M13.2942 7.17041L12.0001 12L10.706 16.8297" stroke="#ffffff" stroke-width="1.5" stroke-linecap="round"/> <path d="M8.49994 9L8.32837 9.17157C6.99504 10.5049 6.32837 11.1716 6.32837 12C6.32837 12.8284 6.99504 13.4951 8.32837 14.8284L8.49994 15" stroke="#ffffff" stroke-width="1.5" stroke-linecap="round"/> </g>
</svg>