<svg xmlns="http://www.w3.org/2000/svg" version="1.1" xmlns:xlink="http://www.w3.org/1999/xlink" xmlns:svgjs="http://svgjs.dev/svgjs" viewBox="0 0 800 800"><defs><symbol id="bbburst-shape-1" viewBox="0 0 194 167"><path d="m97 0 96.129 166.5H.871L97 0Z"></path></symbol><symbol id="bbburst-shape-4" viewBox="0 0 149 143"><path d="M71.647 2.781c.898-2.764 4.808-2.764 5.706 0l15.445 47.534a3 3 0 0 0 2.853 2.073h49.98c2.906 0 4.115 3.719 1.764 5.427L106.96 87.193a2.999 2.999 0 0 0-1.09 3.354l15.445 47.534c.898 2.764-2.266 5.062-4.617 3.354l-40.435-29.378a3 3 0 0 0-3.526 0l-40.435 29.378c-2.351 1.708-5.515-.59-4.617-3.354L43.13 90.547a3 3 0 0 0-1.09-3.354L1.605 57.815c-2.35-1.708-1.142-5.427 1.764-5.427h49.98a3 3 0 0 0 2.853-2.073L71.647 2.781Z"></path></symbol><symbol id="bbburst-shape-8" viewBox="0 0 87 168"><path d="m12 12 31.2546 18.0749c16.4102 9.4902 20.014 31.6325 7.4603 45.8369L36.3296 92.1884c-12.5684 14.2206-8.9394 36.3916 7.5068 45.8636L75 156" stroke-width="14" stroke-linecap="round" stroke-linejoin="round"></path></symbol><symbol id="bbburst-shape-10" viewBox="0 0 145 145"><circle cx="72.5" cy="72.5" r="61.5" fill="none" stroke-width="22"></circle></symbol></defs><use xlink:href="#bbburst-shape-4" width="13.719595759509565" opacity="0.818047584448236" transform="matrix(0.7504861747811405,0.6608861486386073,-0.6608861486386073,0.7504861747811405,719.1941012663435,39.56260580604675)" fill="#5468ff"></use><use xlink:href="#bbburst-shape-4" width="34.557231731872434" opacity="-0.08320025551511545" transform="matrix(0.9433106389512299,-0.3319111905938429,0.3319111905938429,0.9433106389512299,603.5292212461479,365.01646209208855)" fill="#55fbdc"></use><use xlink:href="#bbburst-shape-4" width="16.99669063848516" opacity="0.7994547488669957" transform="matrix(0.9303256498476792,0.36673448874559567,-0.36673448874559567,0.9303256498476792,487.03519242407833,98.7032660360025)" fill="#55fbdc"></use><use xlink:href="#bbburst-shape-4" width="39.891841419749696" opacity="0.26733735270506986" transform="matrix(0.9281705736129873,-0.3721550567692696,0.3721550567692696,0.9281705736129873,405.1999103788405,317.1213737482292)" fill="#5468ff"></use><use xlink:href="#bbburst-shape-4" width="31.854925986628082" opacity="0.3252280816371952" transform="matrix(0.9633920841754453,0.26809642322882954,-0.26809642322882954,0.9633920841754453,779.1111097110594,-88.10635438587497)" fill="#5468ff"></use><use xlink:href="#bbburst-shape-4" width="36.48648999603752" opacity="0.10592278146851641" transform="matrix(0.9695265391400507,0.24498630554199513,-0.24498630554199513,0.9695265391400507,286.8882117895235,-345.0445567638076)" fill="#ccf381"></use><use xlink:href="#bbburst-shape-4" width="45.907677758537176" opacity="0.0901227501086398" transform="matrix(0.7777727172064621,0.628545623140657,-0.628545623140657,0.7777727172064621,281.1447003706987,-133.98251454993206)" fill="#55fbdc"></use><use xlink:href="#bbburst-shape-8" width="28.829763258745565" opacity="0.7060825325125778" transform="matrix(0.8189082341537824,-0.573924475898296,0.573924475898296,0.8189082341537824,44.387981617999856,147.36711135208515)" fill="none" stroke="#5468ff"></use><use xlink:href="#bbburst-shape-10" width="31.398781028313163" opacity="0.4943157417890126" transform="matrix(0.8742689867153629,0.48544179761089024,-0.48544179761089024,0.8742689867153629,774.2928688049681,161.86866049979)" fill="none" stroke="#55fbdc"></use><use xlink:href="#bbburst-shape-10" width="28.15977012535374" opacity="0.5640215288525849" transform="matrix(0.7264908430929596,-0.6871761454693264,0.6871761454693264,0.7264908430929596,272.83347782188105,2.683792880191561)" fill="none" stroke="#55fbdc"></use><use xlink:href="#bbburst-shape-4" width="47.88477253531422" opacity="0.3137748254327818" transform="matrix(0.8152525253087591,-0.5791056207443432,0.5791056207443432,0.8152525253087591,-115.89177641231478,246.7422932455338)" fill="#5468ff"></use><use xlink:href="#bbburst-shape-8" width="19.710295747424627" opacity="0.9072532430058962" transform="matrix(0.8853147054020256,0.4649923358496618,-0.4649923358496618,0.8853147054020256,558.6976202466856,78.66652116252635)" fill="none" stroke="#5468ff"></use><use xlink:href="#bbburst-shape-4" width="16.714536739357087" opacity="0.8974928729571635" transform="matrix(0.8961177730833149,-0.44381633224139094,0.44381633224139094,0.8961177730833149,233.11539399614833,2.857170146926478)" fill="#5468ff"></use><use xlink:href="#bbburst-shape-4" width="27.91998918195472" opacity="0.1951394690075995" transform="matrix(0.9943221001066259,0.10641222316796593,-0.10641222316796593,0.9943221001066259,789.6073497184397,31.011252822890697)" fill="#5468ff"></use><use xlink:href="#bbburst-shape-8" width="30.229986883444916" opacity="0.33389696464442264" transform="matrix(0.9979778982046874,-0.06356189656511661,0.06356189656511661,0.9979778982046874,583.5685645250709,200.8601151148111)" fill="none" stroke="#55fbdc"></use><use xlink:href="#bbburst-shape-4" width="12.967750409173425" opacity="0.9094598105291261" transform="matrix(0.9902340527142945,-0.1394149233225187,0.1394149233225187,0.9902340527142945,297.11129763495256,3.0327221183629263)" fill="#5468ff"></use><use xlink:href="#bbburst-shape-10" width="54.44750503577667" opacity="-0.06674563821868329" transform="matrix(0.8210264781737345,-0.5708901138902601,0.5708901138902601,0.8210264781737345,-191.16821311380943,425.5400943798261)" fill="none" stroke="#5468ff"></use><use xlink:href="#bbburst-shape-1" width="40.50322896260458" opacity="0.17323213194421683" transform="matrix(0.9565941768851316,0.29142337028704074,-0.29142337028704074,0.9565941768851316,241.85928529291965,282.11796455555145)" fill="#55fbdc"></use><use xlink:href="#bbburst-shape-4" width="54.03420691297026" opacity="0.18854757322906224" transform="matrix(0.7542660651141588,0.6565688867264451,-0.6565688867264451,0.7542660651141588,387.74143393146255,-181.2844255659857)" fill="#55fbdc"></use><use xlink:href="#bbburst-shape-10" width="48.12939878072384" opacity="-0.06574587263333886" transform="matrix(0.9458690950773803,-0.3245483861884047,0.3245483861884047,0.9458690950773803,-89.46876379609262,-311.87206449053343)" fill="none" stroke="#55fbdc"></use><use xlink:href="#bbburst-shape-10" width="28.085379819135223" opacity="0.4518731625224184" transform="matrix(0.7154622461133827,-0.6986513968971889,0.6986513968971889,0.7154622461133827,190.72835822611165,356.8682185030381)" fill="none" stroke="#5468ff"></use><use xlink:href="#bbburst-shape-10" width="36.930949727025066" opacity="0.4501381089837071" transform="matrix(0.9285598290695529,0.3711827633906546,-0.3711827633906546,0.9285598290695529,287.21309727123537,-18.700450901509782)" fill="none" stroke="#ccf381"></use><use xlink:href="#bbburst-shape-10" width="36.45026470480519" opacity="0.5589950083896158" transform="matrix(0.9984911641214003,0.05491261395609231,-0.05491261395609231,0.9984911641214003,324.40825269011714,-182.29123792203416)" fill="none" stroke="#ccf381"></use><use xlink:href="#bbburst-shape-4" width="16.924655326910532" opacity="0.8168685909878518" transform="matrix(0.9676385628220886,-0.2523402697541613,0.2523402697541613,0.9676385628220886,289.3838735915692,97.49040694713096)" fill="#4731d4e5"></use><use xlink:href="#bbburst-shape-8" width="15.356109777919709" opacity="0.9147817487652539" transform="matrix(0.9992212563384536,-0.03945732988181528,0.03945732988181528,0.9992212563384536,355.6316851587709,-31.529268389172557)" fill="none" stroke="#4731d4e5"></use><use xlink:href="#bbburst-shape-1" width="35.89115827682987" opacity="0.38175845204050585" transform="matrix(0.8389020748469145,-0.5442823796684418,0.5442823796684418,0.8389020748469145,-58.089203313833536,-88.90749280658497)" fill="#ccf381"></use><use xlink:href="#bbburst-shape-10" width="28.620271425073213" opacity="0.6169916198215428" transform="matrix(0.7474144184452687,-0.6643581015537635,0.6643581015537635,0.7474144184452687,190.00411758574273,269.5732243003195)" fill="none" stroke="#5468ff"></use><use xlink:href="#bbburst-shape-8" width="14.63568991214862" opacity="0.826769634185618" transform="matrix(0.7885143156347324,0.6150164014390914,-0.6150164014390914,0.7885143156347324,685.3789259331642,143.64617293372447)" fill="none" stroke="#5468ff"></use><use xlink:href="#bbburst-shape-8" width="36.452242489282874" opacity="0.3590064255520299" transform="matrix(0.7126798566013194,0.7014894311354397,-0.7014894311354397,0.7126798566013194,526.5032571878521,-149.43565472147063)" fill="none" stroke="#55fbdc"></use><use xlink:href="#bbburst-shape-10" width="40.3117065197509" opacity="0.24652111070694294" transform="matrix(0.9828902408392101,0.1841922215052516,-0.1841922215052516,0.9828902408392101,134.46292665786603,-110.65420759283745)" fill="none" stroke="#4731d4e5"></use><use xlink:href="#bbburst-shape-10" width="47.41082703888222" opacity="0.22812124335965667" transform="matrix(0.8503079579186793,-0.5262854517276395,0.5262854517276395,0.8503079579186793,-170.77890423861194,142.88997693656336)" fill="none" stroke="#ccf381"></use><use xlink:href="#bbburst-shape-4" width="28.995244119648678" opacity="0.1452579672203107" transform="matrix(0.7650998743031099,0.6439116261890023,-0.6439116261890023,0.7650998743031099,762.6851637553093,451.2973121515879)" fill="#5468ff"></use><use xlink:href="#bbburst-shape-10" width="37.938701141624364" opacity="0.08880113670732892" transform="matrix(0.8938621338775515,-0.448341929357349,0.448341929357349,0.8938621338775515,408.00911708621527,-304.5582089092326)" fill="none" stroke="#55fbdc"></use><use xlink:href="#bbburst-shape-4" width="20.694732103402934" opacity="0.7766649539563233" transform="matrix(0.7543939007738002,0.6564220002980474,-0.6564220002980474,0.7543939007738002,685.4058209584259,-4.24694599051071)" fill="#55fbdc"></use><use xlink:href="#bbburst-shape-1" width="26.170517089787435" opacity="0.36770598381427433" transform="matrix(0.88104763973928,-0.4730275430774024,0.4730275430774024,0.88104763973928,483.80604527709585,54.985543097057246)" fill="#5468ff"></use><use xlink:href="#bbburst-shape-8" width="13.44197232300826" opacity="0.9745500734758094" transform="matrix(0.9779915340278259,0.20864457666064495,-0.20864457666064495,0.9779915340278259,488.3366518876056,7.514762794251112)" fill="none" stroke="#55fbdc"></use><use xlink:href="#bbburst-shape-10" width="18.654883975636256" opacity="0.7087535434533198" transform="matrix(0.7875829413410834,-0.6162086582550813,0.6162086582550813,0.7875829413410834,127.5722820039966,-39.02013910118808)" fill="none" stroke="#5468ff"></use><use xlink:href="#bbburst-shape-4" width="14.313868596352048" opacity="0.8708236023666449" transform="matrix(0.8420102059845848,-0.5394615954985092,0.5394615954985092,0.8420102059845848,234.40222151143456,52.23874307556872)" fill="#55fbdc"></use><use xlink:href="#bbburst-shape-10" width="33.7565842181379" opacity="0.39451183904271536" transform="matrix(0.9889845271444477,0.14801893483224723,-0.14801893483224723,0.9889845271444477,265.93336148045285,209.41348979670812)" fill="none" stroke="#5468ff"></use><use xlink:href="#bbburst-shape-8" width="29.800752503528578" opacity="0.5973019081234097" transform="matrix(0.9956901118348146,-0.09274266113485373,0.09274266113485373,0.9956901118348146,358.40926604418485,-177.8129012281419)" fill="none" stroke="#5468ff"></use><use xlink:href="#bbburst-shape-1" width="16.82211020325902" opacity="0.9089679769980561" transform="matrix(0.8750969568301706,0.48394763781485123,-0.48394763781485123,0.8750969568301706,606.533613209538,81.47589653859876)" fill="#4731d4e5"></use><use xlink:href="#bbburst-shape-8" width="16.97884053058947" opacity="0.8065932270947942" transform="matrix(0.9327173434746082,-0.360608315463842,0.360608315463842,0.9327173434746082,173.57391730877598,-15.407618635589245)" fill="none" stroke="#5468ff"></use><use xlink:href="#bbburst-shape-4" width="37.95707412803066" opacity="0.0956718603883554" transform="matrix(0.9648274602104014,0.26288395162874856,-0.26288395162874856,0.9648274602104014,131.0522331796723,206.66343845880755)" fill="#5468ff"></use><use xlink:href="#bbburst-shape-1" width="22.911473803401393" opacity="0.6498240200963927" transform="matrix(0.9685209034474125,0.248932238943468,-0.248932238943468,0.9685209034474125,640.9475344663331,-30.004934397169222)" fill="#55fbdc"></use><use xlink:href="#bbburst-shape-4" width="23.55028646710653" opacity="0.7655278964144636" transform="matrix(0.969510265971981,-0.24505069715252556,0.24505069715252556,0.969510265971981,395.8106498947408,7.550414194062057)" fill="#4731d4e5"></use><use xlink:href="#bbburst-shape-1" width="29.284093478443094" opacity="0.08718362424586346" transform="matrix(0.7183449785691735,0.6956870645372485,-0.6956870645372485,0.7183449785691735,470.4676890375589,462.8043749560907)" fill="#55fbdc"></use><use xlink:href="#bbburst-shape-8" width="30.678789652655247" opacity="0.1940038324283887" transform="matrix(0.9741530528970704,-0.22588897611728992,0.22588897611728992,0.9741530528970704,349.1748454088821,-344.7805084159072)" fill="none" stroke="#ccf381"></use><use xlink:href="#bbburst-shape-10" width="27.334315959206542" opacity="0.19156608636018713" transform="matrix(0.7506154046570821,0.6607393694123916,-0.6607393694123916,0.7506154046570821,613.2529516672612,452.2253585983085)" fill="none" stroke="#5468ff"></use><use xlink:href="#bbburst-shape-4" width="41.4764808834575" opacity="0.20645203626277686" transform="matrix(0.987759386359044,0.15598523859521093,-0.15598523859521093,0.987759386359044,374.7334194733048,-349.0237051178501)" fill="#5468ff"></use><use xlink:href="#bbburst-shape-1" width="26.26770609533928" opacity="0.5732713028936897" transform="matrix(0.9989138748034038,0.04659474997518257,-0.04659474997518257,0.9989138748034038,401.02492553177893,191.8316603334573)" fill="#55fbdc"></use><use xlink:href="#bbburst-shape-1" width="32.251705449551565" opacity="0.130862825382008" transform="matrix(0.7537528975832261,-0.6571579485822953,0.6571579485822953,0.7537528975832261,426.6139860812398,358.13132655332674)" fill="#55fbdc"></use><use xlink:href="#bbburst-shape-8" width="20.89648611111217" opacity="0.7201408387649262" transform="matrix(0.8080926470459141,0.5890554080817251,-0.5890554080817251,0.8080926470459141,728.4699201132518,-4.22603615538128)" fill="none" stroke="#5468ff"></use><use xlink:href="#bbburst-shape-10" width="35.98741788115284" opacity="0.48500395653692085" transform="matrix(0.8896761437560214,-0.4565921147275926,0.4565921147275926,0.8896761437560214,341.46573513349904,236.94246357412192)" fill="none" stroke="#ccf381"></use><use xlink:href="#bbburst-shape-10" width="34.680412369304975" opacity="0.646315125272725" transform="matrix(0.780462241630118,-0.6252029185709959,0.6252029185709959,0.780462241630118,212.85581926753207,-40.92747298016798)" fill="none" stroke="#4731d4e5"></use><use xlink:href="#bbburst-shape-10" width="19.256788653072107" opacity="0.7450394910412041" transform="matrix(0.9716412633046917,0.23645983896565337,-0.23645983896565337,0.9716412633046917,587.244876435292,61.565915192901)" fill="none" stroke="#4731d4e5"></use><use xlink:href="#bbburst-shape-8" width="38.14601659478818" opacity="0.3886629180704585" transform="matrix(0.954867765027813,0.29703122952105443,-0.29703122952105443,0.954867765027813,494.8008093732291,287.4281670368976)" fill="none" stroke="#5468ff"></use><use xlink:href="#bbburst-shape-10" width="24.316137861008777" opacity="0.6406516764251493" transform="matrix(0.7973674889045781,0.6034940659509482,-0.6034940659509482,0.7973674889045781,790.7906608396827,102.702743451164)" fill="none" stroke="#5468ff"></use><use xlink:href="#bbburst-shape-4" width="39.67172149024981" opacity="0.20674005987689903" transform="matrix(0.7398954166731552,0.672721913115708,-0.672721913115708,0.7398954166731552,298.73985868731285,60.06842471140516)" fill="#55fbdc"></use><use xlink:href="#bbburst-shape-4" width="30.48976467048606" opacity="0.7080356158861302" transform="matrix(0.7695086169131446,0.6386364290395743,-0.6386364290395743,0.7695086169131446,562.0760836997687,-20.466370109398838)" fill="#5468ff"></use><use xlink:href="#bbburst-shape-10" width="39.144782478313935" opacity="0.5513805423263625" transform="matrix(0.9320359756303422,-0.3623657546330726,0.3623657546330726,0.9320359756303422,72.0810781779301,150.97808262306785)" fill="none" stroke="#4731d4e5"></use><use xlink:href="#bbburst-shape-10" width="29.656968147917933" opacity="0.4597733774135777" transform="matrix(0.9867992969516881,0.16194797786837029,-0.16194797786837029,0.9867992969516881,504.8498367196014,-233.98844982191338)" fill="none" stroke="#5468ff"></use><use xlink:href="#bbburst-shape-4" width="39.4561778426617" opacity="0.36490113960098436" transform="matrix(0.9354267877737802,0.3535204728374683,-0.3535204728374683,0.9354267877737802,756.2544593278708,-146.167422517314)" fill="#4731d4e5"></use><use xlink:href="#bbburst-shape-4" width="24.804676890945526" opacity="0.7092852647329939" transform="matrix(0.8794277896742135,0.47603231271493246,-0.47603231271493246,0.8794277896742135,581.0839606234779,173.156736347944)" fill="#55fbdc"></use><use xlink:href="#bbburst-shape-4" width="37.68886128054881" opacity="0.40897781132202604" transform="matrix(0.9849450996148984,0.17286743691221282,-0.17286743691221282,0.9849450996148984,421.20469823375197,-261.53467249710985)" fill="#5468ff"></use><use xlink:href="#bbburst-shape-10" width="19.183961195372415" opacity="0.735323570821738" transform="matrix(0.9433040525476971,0.3319299089372506,-0.3319299089372506,0.9433040525476971,584.6848893694137,121.81557498934495)" fill="none" stroke="#ccf381"></use><use xlink:href="#bbburst-shape-1" width="50.01359541174931" opacity="0.09538946425914774" transform="matrix(0.9878665633240422,0.15530503232782314,-0.15530503232782314,0.9878665633240422,777.2584206802333,-223.04690455755596)" fill="#ccf381"></use><use xlink:href="#bbburst-shape-4" width="36.857608615735195" opacity="0.552332447197956" transform="matrix(0.9288112921232006,0.3705530780123551,-0.3705530780123551,0.9288112921232006,379.1686454847776,-110.6158730580513)" fill="#55fbdc"></use><use xlink:href="#bbburst-shape-10" width="26.946687775657708" opacity="0.49902450803325615" transform="matrix(0.9436291745073524,-0.3310045030185733,0.3310045030185733,0.9436291745073524,475.261532572081,74.51205434478123)" fill="none" stroke="#ccf381"></use><use xlink:href="#bbburst-shape-1" width="41.26202091286078" opacity="0.24067577012989672" transform="matrix(0.9928770956827855,-0.11914307730001324,0.11914307730001324,0.9928770956827855,554.9289723691405,-253.48083799167557)" fill="#5468ff"></use><use xlink:href="#bbburst-shape-1" width="17.673112008558526" opacity="0.823998944264989" transform="matrix(0.984557818662144,0.17505970898879303,-0.17505970898879303,0.984557818662144,437.5555194703942,-70.89875736264969)" fill="#4731d4e5"></use><use xlink:href="#bbburst-shape-1" width="28.85152134812381" opacity="0.6392192090334217" transform="matrix(0.9866591176276444,-0.16279983293062122,0.16279983293062122,0.9866591176276444,168.54205146069248,-49.02594591734123)" fill="#4731d4e5"></use><use xlink:href="#bbburst-shape-10" width="24.2873677873114" opacity="0.5649972471124967" transform="matrix(0.9807583493388715,0.19522566481406106,-0.19522566481406106,0.9807583493388715,366.3955672121618,173.73483004995614)" fill="none" stroke="#5468ff"></use><use xlink:href="#bbburst-shape-10" width="39.36159010057627" opacity="0.05239088288890825" transform="matrix(0.8978755149259701,0.4402494289563861,-0.4402494289563861,0.8978755149259701,798.5674607805237,384.56434855739616)" fill="none" stroke="#5468ff"></use><use xlink:href="#bbburst-shape-4" width="27.077878555653058" opacity="0.45395751048079447" transform="matrix(0.923482471129655,0.3836406202636341,-0.3836406202636341,0.923482471129655,467.4195932057423,259.8968552583607)" fill="#55fbdc"></use><use xlink:href="#bbburst-shape-1" width="13.366445744242892" opacity="0.850180748591013" transform="matrix(0.8299984879209412,-0.5577656407927537,0.5577656407927537,0.8299984879209412,234.52273717817263,95.30686845077332)" fill="#55fbdc"></use><use xlink:href="#bbburst-shape-10" width="46.05455128485852" opacity="0.27904428768025547" transform="matrix(0.9360831195624733,0.3517788982730322,-0.3517788982730322,0.9360831195624733,393.7704352007261,316.6874023469226)" fill="none" stroke="#55fbdc"></use><use xlink:href="#bbburst-shape-8" width="41.70710173997411" opacity="0.4651598956791976" transform="matrix(0.7357076345891902,-0.6772992517397156,0.6772992517397156,0.7357076345891902,250.1803524768073,-78.42508732703658)" fill="none" stroke="#5468ff"></use><use xlink:href="#bbburst-shape-1" width="21.836571619872934" opacity="0.6922877697578331" transform="matrix(0.9579223738571614,0.2870273953194376,-0.2870273953194376,0.9579223738571614,440.39488876058533,136.54349854710762)" fill="#5468ff"></use><use xlink:href="#bbburst-shape-10" width="30.27597853153799" opacity="0.11125000137791152" transform="matrix(0.9986766403172029,-0.051429253200334014,0.051429253200334014,0.9986766403172029,726.6142672856087,170.67689280989532)" fill="none" stroke="#4731d4e5"></use><use xlink:href="#bbburst-shape-1" width="28.315768945529122" opacity="0.28280919874635313" transform="matrix(0.8790298837950982,0.47676667605357675,-0.47676667605357675,0.8790298837950982,640.3564536124517,358.37262152097964)" fill="#55fbdc"></use><use xlink:href="#bbburst-shape-1" width="36.74540023237164" opacity="0.4520636015187125" transform="matrix(0.8594658648983561,-0.5111931406763208,0.5111931406763208,0.8594658648983561,-58.158797071179464,130.40652757195733)" fill="#5468ff"></use><use xlink:href="#bbburst-shape-10" width="28.449947457128115" opacity="0.1613182338994681" transform="matrix(0.9999368701385114,0.011236357843974453,-0.011236357843974453,0.9999368701385114,753.078272947317,-104.08843087397389)" fill="none" stroke="#55fbdc"></use><use xlink:href="#bbburst-shape-8" width="32.08243919173245" opacity="0.3122465943083286" transform="matrix(0.9265548661941607,0.37615964686808306,-0.37615964686808306,0.9265548661941607,823.0441349138722,138.06014809967104)" fill="none" stroke="#5468ff"></use><use xlink:href="#bbburst-shape-10" width="20.14018613360326" opacity="0.7616415486643264" transform="matrix(0.8850553201743988,-0.46548585395368614,0.46548585395368614,0.8850553201743988,97.64743970785668,48.8314258640944)" fill="none" stroke="#5468ff"></use><use xlink:href="#bbburst-shape-10" width="18.08156081570934" opacity="0.8361631699951622" transform="matrix(0.7560729758137887,0.6544873224471823,-0.6544873224471823,0.7560729758137887,587.7414852396738,121.9416106216778)" fill="none" stroke="#55fbdc"></use><use xlink:href="#bbburst-shape-1" width="43.36938281046734" opacity="0.2942603691787914" transform="matrix(0.8455289203127857,0.5339296254326921,-0.5339296254326921,0.8455289203127857,709.6690792292454,-245.98098309008338)" fill="#ccf381"></use><use xlink:href="#bbburst-shape-4" width="27.60407432509922" opacity="0.5053229116071758" transform="matrix(0.7441097459426056,0.6680573972296325,-0.6680573972296325,0.7441097459426056,873.2040694014538,40.41945641143775)" fill="#5468ff"></use><use xlink:href="#bbburst-shape-1" width="30.307035613330893" opacity="0.6358414543411886" transform="matrix(0.992252074278946,-0.12424097991053082,0.12424097991053082,0.992252074278946,460.967154199338,110.16164229866882)" fill="#55fbdc"></use><use xlink:href="#bbburst-shape-10" width="26.652655984837303" opacity="0.6133140716543826" transform="matrix(0.9127553399117797,-0.4085066577946208,0.4085066577946208,0.9127553399117797,51.425750812067406,58.97740371382582)" fill="none" stroke="#55fbdc"></use><use xlink:href="#bbburst-shape-8" width="54.68200720240029" opacity="-0.0639774732488192" transform="matrix(0.8313935259720692,0.5556840873839473,-0.5556840873839473,0.8313935259720692,935.2080917898551,-289.17143785054105)" fill="none" stroke="#4731d4e5"></use></svg>