<svg xmlns="http://www.w3.org/2000/svg" version="1.1" xmlns:xlink="http://www.w3.org/1999/xlink" xmlns:svgjs="http://svgjs.dev/svgjs" viewBox="0 0 800 800" opacity="1"><defs><linearGradient x1="50%" y1="0%" x2="50%" y2="100%" id="ccchaos-grad"><stop stop-color="#ccf381" stop-opacity="1" offset="0%"></stop><stop stop-color="#7431d4" stop-opacity="1" offset="100%"></stop></linearGradient></defs><g stroke-width="1.5" stroke="url(#ccchaos-grad)" fill="none" stroke-linecap="round"><path d="M418.35 -39.75Q427.88 -30.93 436.71 -21.83 444.9 -12.58 452.56 -3.37 459.8 5.63 466.79 14.26 473.67 22.35 480.63 29.8 487.85 36.52 495.51 42.48 503.77 47.71 512.79 52.29 522.69 56.34 533.59 60.05 545.56 63.61 558.63 67.26 572.8 71.21 588.03 75.69 604.23 80.89 621.28 86.93 639.02 93.91 657.28 101.85 675.82 110.7 694.44 120.35 712.87 130.64 730.9 141.33 748.27 152.16 764.77 162.86 780.22 173.14 794.44 182.76 807.31 191.49 818.76 199.16 812.68 213.28 801.83 227.39 787.66 241.5 772.06 255.62 757.12 269.73 744.84 283.85 736.85 297.96 734.23 312.08 737.32 326.19 745.72 340.31 758.29 354.42 773.37 368.53 788.92 382.65 802.89 396.76 813.39 410.88 819.02 424.99 819.04 439.1 813.43 453.22 802.95 467.33 789.01 481.45 773.45 495.56 758.37 509.68 745.77 523.79 737.35 537.9 734.23 552.02 736.82 566.13 744.78 580.25 757.04 594.36 771.97 608.47 787.57 622.59 801.76 636.7 812.63 650.81 803.98 656.63 793.94 660.21 782.48 661.75 769.64 661.59 755.49 660.17 740.15 658.04 723.79 655.81 706.6 654.09 688.77 653.49 670.55 654.53 652.17 657.62 633.85 663.06 615.83 670.96 598.3 681.3 581.44 693.85 565.41 708.27 550.32 724.03 536.26 740.56 523.25 757.18 511.3 773.24 500.38 788.07 490.41 801.11 481.29 811.92 472.89 820.18 457.77 827.52 443.36 827.82 428.47 821.15 412.41 814.21 396.74 799.11 381 786.11 365.33 775.6 349.87 767.81 334.74 762.75 320.04 760.29 305.85 760.1 292.24 761.69 279.22 764.47 266.81 767.78 255 770.93 243.73 773.24 232.95 774.1 222.59 773.02 212.55 769.63 202.74 763.73 193.06 755.29 183.42 744.46 173.72 731.55 163.87 716.99 153.81 701.34 143.47 685.22 132.83 669.26 121.86 654.08 110.55 640.25 98.92 628.2 86.99 618.29 74.83 610.68 62.46 605.4 49.97 602.31 37.41 601.13 24.85 601.44 24.28 588.09 23.54 574.73 22.72 561.38 21.94 548.02 21.3 534.67 20.89 521.31 20.75 507.96 20.91 494.61 21.35 481.25 22.01 467.9 22.8 454.54 23.61 441.19 24.34 427.83 24.89 414.48 25.18 401.12 25.18 387.77 24.89 374.41 24.34 361.06 23.61 347.7 22.8 334.35 22.01 321 21.35 307.64 20.91 294.29 20.75 280.93 20.89 267.58 21.3 254.22 21.95 240.87 22.73 227.51 23.54 214.16 24.28 200.8 24.85 187.45 25.17 174.09 37.63 163.95 50.01 154.69 62.23 146.45 74.25 139.3 86.01 133.23 97.48 128.16 108.65 123.94 119.5 120.35 130.06 117.17 140.35 114.13 150.43 110.97 160.35 107.44 170.2 103.34 180.06 98.51 190.02 92.82 200.17 86.25 210.61 78.81 221.43 70.58 232.69 61.68 244.46 52.29 256.78 42.6 269.67 32.83 283.13 23.18 297.13 13.84 311.63 4.98 326.53 -3.28 341.76 -10.89 357.2 -17.8 372.72 -24.06 388.18 -29.72 410.89 -37.33 418.35 -39.75" stroke-dasharray="0 0" transform="rotate(0, 400, 400)" opacity="0.05"></path><path d="M410.82 -23.32Q418.71 -14.7 426.16 -5.8 433.29 3.23 440.23 12.25 447.12 21.09 454.1 29.58 461.34 37.57 468.98 44.96 477.16 51.65 486.01 57.6 495.65 62.82 506.16 67.38 517.61 71.36 530.03 74.92 543.43 78.24 557.77 81.52 572.99 84.97 588.99 88.8 605.64 93.2 622.8 98.33 640.29 104.32 657.92 111.22 675.49 119.04 692.78 127.73 709.6 137.18 725.75 147.22 741.05 157.65 755.35 168.22 768.51 178.68 780.45 188.77 791.1 198.25 800.45 206.91 791.88 220.45 779.68 233.99 765.36 247.54 750.68 261.08 737.47 274.62 727.34 288.17 721.57 301.71 720.86 315.25 725.29 328.8 734.33 342.34 746.85 355.89 761.31 369.43 775.91 382.97 788.85 396.52 798.54 410.06 803.76 423.6 803.88 437.15 798.89 450.69 789.39 464.23 776.56 477.78 762 491.32 747.49 504.87 734.85 518.41 725.62 531.95 720.95 545.5 721.42 559.04 726.97 572.58 736.92 586.13 750.03 599.67 764.68 613.22 774.43 639.76 756.51 643.13 744.69 641.22 731.68 639.23 717.55 637.71 702.45 637.18 686.51 638.1 669.92 640.85 652.85 645.7 635.52 652.78 618.11 662.1 600.82 673.49 583.84 686.7 567.34 701.3 551.47 716.82 536.35 732.69 522.07 748.32 508.69 763.13 496.25 776.59 484.75 788.23 474.14 797.71 464.38 804.81 447.29 810.72 431.75 810.43 417.43 804.16 402.96 797.79 387.7 783.36 372.67 770.82 358 760.54 343.78 752.71 330.07 747.38 316.94 744.45 304.4 743.67 292.47 744.64 281.13 746.87 270.34 749.79 260.04 752.8 250.17 755.31 240.65 756.74 231.38 756.62 222.28 754.55 213.24 750.29 204.19 743.72 195.03 734.86 185.68 723.91 176.1 711.16 166.22 697.03 156.03 682.01 145.49 666.65 134.62 651.5 123.42 637.11 111.93 623.95 100.18 612.43 88.23 602.83 76.13 595.32 63.95 589.93 51.74 586.55 39.57 584.96 38.68 572.24 37.65 559.53 36.6 546.81 35.66 534.09 34.94 521.37 34.54 508.66 34.51 495.94 34.85 483.22 35.51 470.5 36.42 457.79 37.46 445.07 38.51 432.35 39.43 419.64 40.11 406.92 40.47 394.2 40.46 381.48 40.08 368.77 39.39 356.05 38.46 343.33 37.41 330.61 36.37 317.9 35.47 305.18 34.82 292.46 34.5 279.75 34.56 267.03 34.97 254.31 35.7 241.59 36.65 228.88 37.7 216.16 38.73 203.44 39.61 190.73 40.22 178.01 52.32 169.21 64.37 161.42 76.3 154.67 88.07 148.96 99.61 144.19 110.9 140.24 121.89 136.91 132.56 133.97 142.93 131.2 152.99 128.35 162.77 125.19 172.31 121.51 181.68 117.15 190.94 112 200.17 106 209.46 99.14 218.88 91.48 228.54 83.1 238.51 74.17 248.88 64.84 259.71 55.31 271.06 45.78 282.96 36.44 295.43 27.46 308.46 18.97 322.04 11.08 336.11 3.86 350.6 -2.69 365.42 -8.6 380.49 -13.93 403.24 -21.05 410.82 -23.32" stroke-dasharray="0 0" transform="rotate(4.04, 400, 400)" opacity="0.09"></path><path d="M401.11 -6.9Q408.1 1.49 414.98 10.17 421.86 19 428.88 27.82 436.15 36.48 443.81 44.82 451.98 52.71 460.75 60.03 470.23 66.69 480.48 72.65 491.56 77.89 503.5 82.45 516.29 86.42 529.91 89.9 544.3 93.05 559.4 96.04 575.09 99.08 591.24 102.35 607.73 106.04 624.38 110.33 641.02 115.36 657.49 121.21 673.6 127.95 689.18 135.58 704.08 144.03 718.16 153.21 731.28 162.96 743.36 173.09 754.32 183.39 764.14 193.62 772.8 203.53 780.34 212.91 770 225.84 757.14 238.77 743.25 251.7 729.89 264.63 718.6 277.56 710.66 290.49 706.99 303.42 707.99 316.35 713.55 329.28 723.05 342.21 735.39 355.14 749.17 368.07 762.81 381 774.77 393.93 783.67 406.86 788.5 419.8 788.71 432.73 784.27 445.66 775.7 458.59 763.97 471.52 750.41 484.45 736.58 497.38 724.05 510.31 714.25 523.24 708.3 536.17 706.88 549.1 710.15 562.03 717.74 574.96 728.77 587.89 742 600.82 742.88 622.93 720.44 621.25 708.57 620.88 695.67 621.82 681.85 624.41 667.2 628.89 651.87 635.37 636.01 643.89 619.79 654.34 603.37 666.49 586.92 680.02 570.61 694.54 554.6 709.56 539.02 724.58 523.99 739.1 509.63 752.61 496.01 764.68 483.18 774.95 471.16 783.18 459.97 789.21 449.58 793.03 439.94 794.77 422.86 792.52 407.24 787.19 400.01 783.99 392.92 781.37 378.81 767.6 365.18 755.54 352.07 745.5 339.54 737.67 327.61 732.12 316.26 728.78 305.5 727.45 295.27 727.81 285.54 729.47 276.22 731.95 267.25 734.73 258.55 737.28 241.57 738.93 224.6 735.94 215.91 731.07 207.01 724.1 197.84 715.1 188.35 704.25 178.53 691.85 168.37 678.26 157.86 663.92 147.04 649.32 135.92 634.94 124.55 621.24 112.97 608.65 101.24 597.51 89.41 588.08 77.55 580.53 65.7 574.91 53.92 571.14 52.72 559.01 51.44 546.88 50.22 534.76 49.21 522.63 48.51 510.51 48.21 498.38 48.34 486.25 48.89 474.13 49.79 462 50.94 449.87 52.22 437.75 53.47 425.62 54.55 413.5 55.34 401.37 55.74 389.24 55.73 377.12 55.28 364.99 54.46 352.86 53.36 340.74 52.1 328.61 50.83 316.49 49.7 304.36 48.82 292.23 48.31 280.11 48.22 267.98 48.56 255.85 49.29 243.73 50.33 231.6 51.56 219.47 52.84 207.35 54.02 195.22 54.97 183.09 66.72 175.83 78.44 169.56 90.1 164.28 101.63 159.89 112.98 156.25 124.1 153.2 134.97 150.54 145.53 148.02 155.78 145.45 165.72 142.6 175.34 139.27 184.67 135.33 193.75 130.63 202.61 125.13 211.33 118.8 219.97 111.66 228.61 103.81 237.32 95.34 246.2 86.42 255.33 77.2 264.78 67.88 274.64 58.64 284.96 49.64 295.78 41.03 307.16 32.94 319.09 25.45 331.59 18.61 344.63 12.43 358.17 6.87 372.15 1.86 393.8 -4.79 401.11 -6.9" stroke-dasharray="0 0" transform="rotate(8.08, 400, 400)" opacity="0.13"></path><path d="M391.18 9.5Q398.06 17.68 405.12 26.13 412.46 34.73 420.18 43.33 428.38 51.79 437.14 59.98 446.54 67.75 456.63 75 467.44 81.64 479.01 87.6 491.32 92.88 504.35 97.48 518.06 101.46 532.38 104.92 547.21 107.97 562.45 110.77 577.99 113.49 593.69 116.31 609.41 119.4 624.99 122.94 640.3 127.08 655.18 131.93 669.5 137.59 683.13 144.1 695.97 151.45 707.91 159.59 718.89 168.43 728.86 177.84 737.82 187.64 745.76 197.64 752.73 207.62 758.8 217.37 747.4 229.65 734.54 241.94 721.58 254.22 709.86 266.51 700.62 278.79 694.83 291.08 693.09 303.37 695.59 315.65 702.06 327.94 711.83 340.22 723.87 352.51 736.92 364.8 749.61 377.08 760.61 389.37 768.77 401.65 773.23 413.94 773.52 426.22 769.62 438.51 761.93 450.8 751.25 463.08 738.72 475.37 725.63 487.65 713.37 499.94 703.23 512.23 696.25 524.51 693.18 536.8 694.34 549.08 699.6 561.37 708.42 573.66 719.87 585.94 724.32 605.2 706.5 604.61 696.76 605.69 686.04 608.27 674.38 612.54 661.84 618.63 648.51 626.56 634.48 636.24 619.89 647.5 604.85 660.08 589.51 673.65 574.01 687.8 558.5 702.11 543.11 716.14 527.97 729.44 513.21 741.61 498.92 752.32 485.21 761.28 472.13 768.33 459.73 773.37 448.04 776.45 437.07 777.69 426.81 777.32 417.21 775.68 400.05 770.24 384.29 764.95 371.92 751.84 360.12 740.26 348.9 730.49 338.27 722.7 328.19 716.97 318.63 713.26 301 711.86 284.35 714.29 268.54 719 252.74 722.41 244.66 722.34 236.37 720.74 227.82 717.38 218.98 712.15 209.81 705.03 200.29 696.11 190.43 685.55 180.23 673.63 169.72 660.67 158.92 647.06 147.88 633.21 136.63 619.54 125.24 606.46 113.75 594.33 102.22 583.47 90.7 574.11 79.24 566.42 67.88 560.45 66.41 548.87 64.95 537.28 63.66 525.7 62.66 514.11 62.06 502.53 61.93 490.94 62.28 479.36 63.07 467.77 64.22 456.19 65.61 444.6 67.09 433.02 68.5 421.43 69.71 409.85 70.58 398.27 71.02 386.68 70.99 375.1 70.49 363.51 69.56 351.93 68.32 340.34 66.88 328.76 65.41 317.17 64.04 305.59 62.94 294 62.21 282.42 61.92 270.83 62.12 259.25 62.77 247.66 63.82 236.08 65.15 224.5 66.61 212.91 68.07 201.33 69.36 189.74 80.74 184.04 92.14 179.26 103.51 175.3 114.8 172.03 125.96 169.29 136.94 166.9 147.69 164.64 158.19 162.31 168.39 159.72 178.28 156.7 187.86 153.08 197.11 148.78 206.06 143.7 214.73 137.83 223.16 131.17 231.4 123.8 239.51 115.8 247.55 107.29 255.61 98.44 263.75 89.39 272.07 80.33 280.62 71.41 289.5 62.78 298.76 54.58 308.47 46.91 318.68 39.83 329.41 33.38 340.7 27.57 352.54 22.36 364.93 17.67 384.5 11.46 391.18 9.5" stroke-dasharray="0 0" transform="rotate(12.12, 400, 400)" opacity="0.16"></path><path d="M383.01 25.93Q390.44 33.87 398.26 42.08 406.54 50.43 415.33 58.8 424.71 67.06 434.7 75.07 445.33 82.72 456.62 89.88 468.55 96.49 481.09 102.46 494.2 107.78 507.83 112.44 521.9 116.48 536.31 119.96 550.96 122.98 565.75 125.67 580.54 128.17 595.23 130.64 609.67 133.24 623.76 136.15 637.38 139.5 650.4 143.43 662.75 148.05 674.33 153.44 685.09 159.64 694.98 166.63 703.97 174.39 712.06 182.83 719.28 191.84 725.67 201.26 731.3 210.92 736.25 220.64 724.49 232.26 712.21 243.89 700.58 255.51 690.72 267.14 683.57 278.77 679.82 290.39 679.83 302.02 683.61 313.64 690.78 325.27 700.66 336.9 712.3 348.52 724.58 360.15 736.33 371.77 746.41 383.4 753.86 395.03 757.96 406.65 758.33 418.28 754.91 429.9 748.05 441.53 738.4 453.16 726.88 464.78 714.61 476.41 702.76 488.03 692.46 499.66 684.72 511.29 680.27 522.91 679.53 534.54 682.58 546.16 689.13 557.79 698.55 569.42 704.29 588.01 690.11 589.75 682.25 592.43 673.54 596.65 663.96 602.51 653.52 610.02 642.27 619.11 630.26 629.64 617.57 641.39 604.28 654.09 590.49 667.39 576.32 680.94 561.89 694.36 547.31 707.26 532.7 719.29 518.18 730.12 503.86 739.5 489.84 747.22 476.22 753.17 463.07 757.33 450.45 759.73 438.41 760.54 426.97 759.98 416.16 758.34 405.97 755.97 396.37 753.27 387.34 750.65 378.83 748.52 368.46 736.06 358.64 724.97 349.35 715.49 340.54 707.78 324.28 698.76 308.91 694.84 294.25 697.13 279.57 701.18 264.18 704.33 248.04 704.78 239.44 702.72 230.49 699.05 221.21 693.68 211.58 686.62 201.63 677.95 191.37 667.84 180.85 656.51 170.1 644.25 159.16 631.39 148.08 618.29 136.92 605.3 125.71 592.77 114.52 581.04 103.38 570.37 92.34 561.01 81.43 553.09 79.77 542 78.23 530.91 76.96 519.82 76.08 508.73 75.67 497.64 75.77 486.55 76.37 475.46 77.41 464.37 78.8 453.28 80.4 442.19 82.06 431.09 83.61 420 84.92 408.91 85.85 397.82 86.31 386.73 86.26 375.64 85.7 364.55 84.7 353.46 83.34 342.37 81.75 331.28 80.09 320.19 78.52 309.1 77.18 298.01 76.22 286.92 75.71 275.83 75.7 264.74 76.21 253.65 77.18 242.56 78.51 231.47 80.08 220.38 81.74 209.29 83.32 198.19 94.32 193.97 105.37 190.49 116.43 187.62 127.46 185.21 138.4 183.09 149.23 181.07 159.88 178.97 170.31 176.6 180.5 173.82 190.4 170.48 199.99 166.48 209.27 161.75 218.23 156.27 226.87 150.04 235.22 143.1 243.3 135.54 251.14 127.45 258.81 118.97 266.35 110.25 273.82 101.43 281.3 92.67 288.87 84.12 296.58 75.9 304.52 68.13 312.76 60.88 321.35 54.23 330.37 48.19 339.85 42.75 349.84 37.88 360.36 33.51 377.21 27.75 383.01 25.93" stroke-dasharray="0 0" transform="rotate(16.16, 400, 400)" opacity="0.20"></path><path d="M378.27 42.35Q386.65 50.05 395.52 57.99 404.91 66.09 414.84 74.21 425.34 82.25 436.4 90.08 448 97.58 460.11 104.65 472.7 111.22 485.71 117.2 499.07 122.56 512.69 127.29 526.51 131.41 540.41 134.96 554.3 138.01 568.07 140.67 581.63 143.04 594.86 145.28 607.68 147.52 619.99 149.91 631.71 152.6 642.77 155.72 653.12 159.4 662.71 163.73 671.52 168.78 679.54 174.58 686.79 181.15 693.3 188.46 699.11 196.42 704.3 204.96 708.94 213.94 713.13 223.22 701.66 234.19 690.44 245.15 680.45 256.12 672.57 267.08 667.48 278.05 665.63 289.02 667.18 299.98 672 310.95 679.67 321.91 689.5 332.88 700.65 343.85 712.14 354.81 722.96 365.78 732.16 376.75 738.93 387.71 742.7 398.68 743.12 409.64 740.16 420.61 734.07 431.58 725.4 442.54 714.9 453.51 703.48 464.48 692.16 475.44 681.91 486.41 673.64 497.37 668.08 508.34 665.7 519.31 666.72 530.27 671.04 541.24 678.29 552.21 683.27 572.01 671.67 576.95 665.38 581.24 658.4 587 650.67 594.24 642.19 602.89 632.95 612.82 622.97 623.87 612.28 635.78 600.93 648.28 588.98 661.07 576.5 673.81 563.59 686.19 550.32 697.88 536.8 708.61 523.13 718.12 509.41 726.22 495.73 732.78 482.19 737.73 468.87 741.08 455.86 742.9 443.22 743.35 431.02 742.63 419.3 741.02 408.08 738.81 397.4 736.35 387.25 733.99 377.62 732.1 369.2 720.29 361.21 709.69 353.6 700.52 346.3 692.92 332.42 683.48 318.85 678.71 305.12 679.96 290.92 683.24 275.46 686.63 259.06 688.17 250.27 687.18 241.15 684.85 231.69 681.05 221.93 675.74 211.89 668.91 201.6 660.65 191.1 651.1 180.45 640.45 169.67 628.94 158.83 616.86 147.96 604.5 137.1 592.17 126.31 580.18 115.6 568.81 105.03 558.3 94.6 548.89 92.87 538.25 91.36 527.61 90.22 516.97 89.53 506.34 89.37 495.7 89.75 485.06 90.63 474.43 91.93 463.79 93.55 453.15 95.34 442.51 97.14 431.88 98.79 421.24 100.16 410.6 101.12 399.97 101.59 389.33 101.52 378.69 100.93 368.06 99.86 357.42 98.41 346.78 96.7 336.15 94.89 325.51 93.13 314.87 91.58 304.24 90.37 293.6 89.61 282.96 89.36 272.33 89.65 261.69 90.46 251.05 91.7 240.42 93.28 229.78 95.05 219.14 96.86 208.51 107.43 205.53 118.09 203.09 128.8 201.02 139.53 199.17 150.22 197.38 160.85 195.46 171.36 193.27 181.72 190.67 191.87 187.54 201.79 183.78 211.45 179.33 220.81 174.17 229.87 168.3 238.6 161.74 247.02 154.58 255.13 146.89 262.95 138.79 270.5 130.4 277.82 121.87 284.96 113.34 291.96 104.93 298.89 96.78 305.81 89 312.79 81.67 319.89 74.88 327.18 68.65 334.72 63.01 342.59 57.95 350.83 53.42 359.5 49.36 373.45 44.03 378.27 42.35" stroke-dasharray="0 0" transform="rotate(20.200000000000003, 400, 400)" opacity="0.24"></path><path d="M377.9 58.77Q387.32 66.21 397.22 73.89 407.59 81.71 418.44 89.58 429.74 97.38 441.46 105 453.55 112.35 465.96 119.31 478.64 125.81 491.52 131.79 504.51 137.2 517.54 142.01 530.53 146.22 543.39 149.87 556.03 153 568.37 155.69 580.33 158.04 591.84 160.14 602.83 162.14 613.24 164.15 623.03 166.32 632.17 168.77 648.07 175.3 661.95 183.62 672.79 195.39 682.15 209.23 686.15 217.23 689.91 225.7 679.28 236.03 669.51 246.35 661.36 256.67 655.49 266.99 652.36 277.31 652.22 287.63 655.08 297.95 660.72 308.27 668.68 318.59 678.33 328.91 688.92 339.23 699.58 349.56 709.49 359.88 717.85 370.2 723.99 380.52 727.43 390.84 727.9 401.16 725.36 411.48 720 421.8 712.26 432.12 702.75 442.45 692.23 452.77 681.53 463.09 671.51 473.41 662.95 483.73 656.54 494.05 652.79 504.37 651.99 514.69 654.22 525.02 659.29 535.34 661.77 557.77 651.75 566.36 646.64 572.14 641.03 579.22 634.85 587.55 628.05 597.01 620.61 607.45 612.52 618.67 603.76 630.42 594.37 642.46 584.35 654.5 573.75 666.27 562.63 677.5 551.03 687.94 539.02 697.36 526.69 705.59 514.1 712.49 501.35 717.97 488.5 722.02 475.65 724.65 462.87 725.97 450.24 726.12 437.83 725.29 425.7 723.72 413.91 721.68 402.49 719.46 391.49 717.36 380.92 715.68 374.11 704.51 367.54 694.41 361.15 685.57 354.88 678.12 342.41 668.34 329.72 662.82 316.15 663.04 301.79 665.45 285.87 668.8 268.96 671.04 259.93 670.88 250.59 669.65 240.98 667.22 231.12 663.47 221.04 658.37 210.79 651.92 200.41 644.19 189.94 635.29 179.41 625.4 168.88 614.69 158.38 603.42 147.95 591.82 137.62 580.16 127.42 568.7 117.37 557.68 107.48 547.34 105.78 537.13 104.42 526.92 103.5 516.7 103.1 506.49 103.24 496.28 103.92 486.07 105.09 475.85 106.64 465.64 108.46 455.43 110.4 445.21 112.31 435 114.04 424.79 115.44 414.58 116.41 404.36 116.87 394.15 116.79 383.94 116.16 373.72 115.05 363.51 113.53 353.3 111.74 343.09 109.8 332.87 107.88 322.66 106.13 312.45 104.68 302.24 103.66 292.02 103.14 281.81 103.16 271.6 103.73 261.39 104.8 251.17 106.28 240.96 114.07 224.63 130.3 216.77 140.61 215.18 150.98 213.57 161.36 211.8 171.73 209.75 182.05 207.27 192.27 204.28 202.35 200.69 212.26 196.46 221.95 191.54 231.41 185.96 240.59 179.73 249.48 172.91 258.07 165.59 266.34 157.85 274.3 149.82 281.95 141.6 289.32 133.33 296.42 125.13 303.28 117.12 309.95 109.41 316.47 102.09 322.89 95.23 335.72 83.38 348.78 73.17 370.38 62.1 377.9 58.77" stroke-dasharray="0 0" transform="rotate(24.24, 400, 400)" opacity="0.28"></path><path d="M381.98 75.2Q392.22 82.37 402.85 89.76 413.84 97.31 425.15 104.9 436.74 112.45 448.56 119.85 460.56 127.02 472.68 133.85 484.86 140.28 497.02 146.24 509.1 151.67 521.02 156.56 532.72 160.88 544.13 164.65 555.19 167.9 565.84 170.68 576.02 173.07 585.69 175.15 603.09 178.81 618.74 182.53 631.51 187.51 642.69 193.86 651.67 203.21 659.73 214.54 663.41 221.34 667.04 228.72 657.69 238.42 649.63 248.12 643.42 257.82 639.51 267.52 638.19 277.23 639.54 286.93 643.47 296.63 649.7 306.33 657.78 316.03 667.13 325.73 677.08 335.43 686.92 345.14 695.93 354.84 703.49 364.54 709.03 374.24 712.17 383.94 712.67 393.64 710.51 403.35 705.84 413.05 698.98 422.75 690.45 432.45 680.84 442.15 670.84 451.85 661.19 461.56 652.55 471.26 645.57 480.96 640.73 490.66 638.38 500.36 638.7 510.07 641.66 519.77 645.7 539.25 638.89 547.4 630.83 558.56 622.03 573.1 617.01 582.19 611.56 592.11 605.61 602.7 599.13 613.77 592.11 625.08 584.52 636.41 576.36 647.53 567.64 658.2 558.38 668.21 548.61 677.38 538.36 685.53 527.69 692.53 516.63 698.31 505.26 702.81 493.62 706.04 481.8 708.06 469.85 708.95 457.84 708.86 445.84 707.95 433.91 706.45 422.12 704.58 410.51 702.58 399.15 700.72 388.07 699.25 382.31 688.71 376.6 679.11 370.89 670.62 365.11 663.35 353.06 653.34 340.39 647.17 326.37 646.39 311.41 647.88 294.84 650.93 277.34 653.51 268.1 653.95 258.61 653.59 248.92 652.28 239.05 649.88 229.04 646.32 218.94 641.56 208.78 635.61 198.59 628.51 188.43 620.35 178.31 611.27 168.27 601.42 158.35 590.99 148.56 580.19 138.92 569.23 129.45 558.33 120.16 547.71 118.63 537.9 117.52 528.1 116.91 518.29 116.84 508.49 117.33 498.68 118.32 488.88 119.76 479.07 121.54 469.27 123.54 459.46 125.6 449.66 127.58 439.85 129.34 430.05 130.75 420.25 131.71 410.44 132.16 400.64 132.06 390.83 131.41 381.03 130.27 371.22 128.71 361.42 126.85 351.61 124.82 341.81 122.77 332.01 120.84 322.2 119.18 312.4 117.89 302.59 117.08 292.79 116.8 282.99 117.08 273.18 117.88 263.38 119.16 253.57 126.58 238.15 142.06 231.14 151.9 229.68 161.83 228.01 171.83 226.03 181.86 223.62 191.9 220.71 201.9 217.22 211.83 213.12 221.65 208.39 231.32 203.03 240.82 197.07 250.11 190.55 259.15 183.56 267.93 176.16 276.43 168.47 284.62 160.58 292.52 152.6 300.1 144.66 307.38 136.85 314.38 129.29 321.1 122.05 333.77 109.08 345.93 97.6 357.7 88.67 369.55 81.13 378.82 76.62 381.98 75.2" stroke-dasharray="0 0" transform="rotate(28.28, 400, 400)" opacity="0.32"></path><path d="M389.68 91.62Q400.31 98.51 411.17 105.61 422.22 112.85 433.42 120.16 444.71 127.44 456.06 134.6 467.39 141.57 478.66 148.25 489.81 154.59 500.78 160.5 511.51 165.95 521.96 170.9 532.08 175.33 541.82 179.23 551.14 182.63 560.01 185.55 576.05 190.04 590.58 193.7 610.35 199.8 622.36 205.32 630.18 212.4 637.59 221.23 639.21 234.33 630.99 251.06 626.71 260.18 624.64 269.29 624.91 278.41 627.51 287.53 632.27 296.64 638.88 305.76 646.91 314.88 655.85 324 665.12 333.11 674.13 342.23 682.29 351.35 689.07 360.46 694.05 369.58 696.9 378.7 697.44 387.81 695.62 396.93 691.58 406.05 685.56 415.17 677.96 424.28 669.27 433.4 660.05 442.52 650.88 451.63 642.37 460.75 635.06 469.87 629.42 478.99 625.81 488.1 624.47 497.22 625.49 506.34 625.33 527.34 617.58 538.63 609.95 552.13 602.1 568.38 597.86 577.85 593.36 587.88 588.53 598.29 583.33 608.91 577.71 619.53 571.65 629.96 565.13 640.01 558.13 649.51 550.64 658.28 542.66 666.18 534.22 673.1 525.32 678.96 515.99 683.71 506.27 687.33 496.19 689.85 485.81 691.33 475.15 691.86 464.28 691.58 453.26 690.64 442.12 689.22 430.94 687.52 419.76 685.75 408.63 684.11 397.61 682.83 392.3 672.91 386.87 663.82 381.29 655.7 375.5 648.63 363.05 638.49 349.76 631.77 334.93 630.05 319.17 630.59 310.76 631.75 302.08 633.14 293.15 634.53 283.99 635.73 274.64 636.56 265.13 636.83 255.48 636.39 245.74 635.1 235.95 632.86 226.13 629.61 216.32 625.3 206.55 619.93 196.85 613.54 187.26 606.19 177.78 597.99 168.45 589.04 159.27 579.51 150.26 569.55 141.43 559.34 132.77 549.06 131.53 539.66 130.76 530.26 130.53 520.86 130.84 511.46 131.67 502.06 132.98 492.66 134.68 483.26 136.65 473.86 138.77 464.47 140.91 455.07 142.93 445.67 144.69 436.27 146.09 426.87 147.03 417.47 147.45 408.07 147.32 398.67 146.66 389.27 145.51 379.87 143.93 370.47 142.04 361.07 139.95 351.67 137.8 342.28 135.73 332.88 133.87 323.48 132.33 314.08 131.23 304.68 130.63 295.28 130.56 285.88 131.04 276.48 132.04 267.08 138.88 252.37 153.45 245.68 162.75 244.05 172.17 242.08 181.7 239.67 191.31 236.77 200.96 233.32 210.64 229.3 220.31 224.68 229.94 219.48 239.49 213.73 248.93 207.47 258.23 200.76 267.36 193.68 276.28 186.31 284.98 178.75 293.42 171.09 301.6 163.44 309.49 155.88 317.08 148.52 324.38 141.43 331.38 134.68 344.41 122.7 356.69 112.13 367.99 103.95 378.93 97.04 386.99 92.91 389.68 91.62" stroke-dasharray="0 0" transform="rotate(32.32, 400, 400)" opacity="0.35"></path><path d="M399.46 108.04Q409.9 114.63 420.42 121.43 430.95 128.37 441.47 135.37 451.92 142.36 462.26 149.27 472.45 156.02 482.43 162.53 492.18 168.74 501.64 174.59 510.79 180.04 519.58 185.03 535.82 193.34 550.81 200.22 563.67 204.97 575.29 208.74 591.43 213.84 601.61 217.96 614.45 228.41 623.98 238.53 618.02 247.1 613.69 255.67 611.86 272.81 616.07 289.95 621.41 298.52 628.2 307.08 636.04 315.65 644.47 324.22 653.03 332.79 661.21 341.36 668.54 349.93 674.61 358.5 680.62 375.64 680.69 392.78 677.23 401.35 671.99 409.92 665.3 418.49 657.52 427.06 649.1 435.63 640.54 444.2 632.32 452.77 624.91 461.34 618.75 469.91 614.18 478.48 611.8 495.62 615.47 512.76 605.93 521.17 597.28 532.25 593.33 539.29 589.51 547.1 585.74 555.6 581.98 564.66 578.16 574.16 574.22 583.95 570.12 593.88 565.8 603.8 561.22 613.53 556.34 622.92 551.13 631.82 545.55 640.09 539.58 647.62 533.22 654.31 519.05 664.39 503.66 671.54 495.28 673.44 486.54 674.47 477.47 674.71 468.1 674.29 458.45 673.35 448.58 672.03 438.52 670.5 428.31 668.93 418 667.51 407.63 666.41 402.22 657.11 396.58 648.53 390.69 640.78 384.52 633.95 371.16 623.78 356.9 616.61 341.18 614.01 324.67 613.61 316 614.37 307.13 615.44 298.09 616.65 288.9 617.85 279.6 618.86 270.22 619.53 260.8 619.71 251.35 619.27 241.92 618.11 232.54 616.13 223.22 613.26 213.99 609.48 204.88 604.77 195.91 599.16 187.08 592.67 178.41 585.39 169.91 577.4 161.59 568.81 153.44 559.76 145.46 550.38 144.59 541.39 144.24 532.41 144.42 523.42 145.12 514.44 146.3 505.46 147.9 496.47 149.82 487.49 151.94 478.51 154.16 469.52 156.34 460.54 158.35 451.56 160.08 442.57 161.44 433.59 162.33 424.61 162.72 415.62 162.58 406.64 161.91 397.66 160.76 388.67 159.19 379.69 157.29 370.71 155.18 361.72 152.96 352.74 150.78 343.76 148.75 334.77 146.99 325.79 145.61 316.81 144.68 307.82 144.26 298.84 144.37 289.86 145 280.87 151.08 266.71 164.59 259.88 173.29 257.85 182.13 255.38 191.1 252.43 200.18 248.95 209.35 244.94 218.59 240.38 227.88 235.29 237.19 229.7 246.48 223.65 255.74 217.19 264.92 210.4 274.01 203.34 282.97 196.11 291.77 188.77 300.38 181.43 308.79 174.16 316.96 167.05 324.89 160.17 332.54 153.59 339.93 147.36 353.7 136.37 366.63 126.71 378.27 119.26 389.25 112.97 396.94 109.21 399.46 108.04" stroke-dasharray="0 0" transform="rotate(36.36, 400, 400)" opacity="0.39"></path><path d="M409.35 124.46Q428.68 137.23 447.56 150.53 465.72 163.85 482.9 176.67 498.89 188.49 513.54 198.91 526.77 207.66 538.55 214.64 548.97 219.92 558.18 223.77 573.75 229.12 588.32 234.98 595.97 239.68 604.44 246.15 597.8 262.27 598.04 278.39 605.12 294.51 617.6 310.63 632.99 326.75 648.17 342.86 660.1 358.98 666.37 375.1 665.72 391.22 658.28 407.34 645.55 423.45 630.09 439.57 615.02 455.69 603.36 471.81 597.47 487.92 598.52 504.04 587.82 514.54 578.46 527.98 570.11 543.89 562.41 561.54 554.98 579.98 547.43 598.19 539.4 615.14 530.59 629.9 520.74 641.76 509.65 650.32 497.21 655.47 483.39 657.5 468.22 657.01 451.83 654.87 434.39 652.15 416.11 649.99 404.06 633.23 390.87 619.31 376.57 608.74 361.2 601.69 344.91 597.95 327.85 597 310.22 598.02 292.25 600 274.16 601.89 256.17 602.62 238.46 601.29 221.21 597.21 204.52 590.01 188.48 579.63 173.1 566.33 158.38 550.68 158.08 533.58 159.77 516.49 163.12 499.4 167.44 482.31 171.87 465.21 175.52 448.12 177.66 431.03 177.84 413.93 176.05 396.84 172.62 379.75 168.27 362.65 163.86 345.56 160.28 328.47 158.25 311.37 158.18 294.28 160.08 277.18 175.68 273.24 191.89 267.58 208.68 259.96 225.95 250.39 243.58 239.04 261.39 226.28 279.18 212.6 296.76 198.59 313.9 184.82 330.4 171.84 346.09 160.1 360.83 149.9 374.53 141.35 387.15 134.43 404.04 126.69 409.35 124.46" stroke-dasharray="0 0" transform="rotate(40.400000000000006, 400, 400)" opacity="0.43"></path><path d="M417.36 140.89Q434.22 153.01 450.31 165.64 465.43 178.35 479.47 190.67 492.34 202.19 504 212.53 514.48 221.42 523.88 228.71 539.82 238.05 554.33 244.02 569.35 248.78 586.52 255.85 583.31 271 586.16 286.16 594.56 301.32 607.03 316.48 621.36 331.64 635 346.8 645.54 361.96 651.1 377.11 650.71 392.27 644.43 407.43 633.37 422.59 619.5 437.75 605.27 452.9 593.21 468.06 585.46 483.22 583.38 498.38 571.74 510.8 561.46 525.38 552.32 541.55 544.08 558.58 536.44 575.63 529.12 591.87 521.8 606.51 514.2 618.89 506.05 628.56 497.13 635.3 487.26 639.16 476.32 640.45 464.24 639.73 451.01 637.75 436.69 635.38 421.36 633.56 408.04 617.92 393.73 604.7 378.51 594.33 362.52 587 345.93 582.61 328.92 580.78 311.69 580.94 294.44 582.33 277.35 584.09 260.58 585.36 244.26 585.31 228.5 583.27 213.35 578.76 198.86 571.52 184.99 561.55 171.7 549.09 172.36 532.93 174.81 516.76 178.62 500.6 183.12 484.44 187.5 468.28 191 452.11 192.99 435.95 193.11 419.79 191.35 403.62 188.02 387.46 183.71 371.3 179.18 355.13 175.23 338.97 172.58 322.81 171.68 306.64 172.69 290.48 186.89 285.32 201.68 278.39 217.07 269.68 233 259.3 249.4 247.54 266.16 234.8 283.12 221.54 300.13 208.26 317 195.46 333.55 183.57 349.58 172.92 364.95 163.73 379.49 156.06 393.11 149.85 411.55 142.89 417.36 140.89" stroke-dasharray="0 0" transform="rotate(44.44, 400, 400)" opacity="0.47"></path><path d="M421.87 157.31Q435.85 168.77 448.93 180.7 461.06 192.76 472.19 204.54 482.34 215.69 491.57 225.88 499.98 234.83 507.7 242.39 521.82 252.56 535.74 259.14 543.19 261.05 551.3 262.79 560.28 264.8 570.32 267.53 570.15 281.77 575.07 296.02 584.3 310.26 596.43 324.51 609.57 338.75 621.7 353 630.93 367.24 635.84 381.48 635.66 395.73 630.44 409.97 620.96 424.21 608.71 438.46 595.57 452.7 583.58 466.94 574.59 481.19 570 495.43 557.6 508.97 546.47 523.87 536.49 539.54 527.51 555.34 519.33 570.58 511.75 584.63 504.53 596.93 497.43 607.04 490.23 614.71 482.7 619.86 474.66 622.63 465.93 623.33 456.4 622.47 445.97 620.68 434.61 618.65 422.3 617.14 407.94 602.61 392.87 590.12 377.22 580.04 361.14 572.54 344.82 567.61 328.42 564.99 312.1 564.3 296.01 564.96 280.28 566.34 265.03 567.74 250.31 568.46 236.19 567.89 222.68 565.53 209.77 561.01 197.41 554.15 185.54 544.96 187.13 529.79 190.25 514.62 194.41 499.45 198.97 484.28 203.22 469.11 206.5 453.94 208.32 438.77 208.38 423.6 206.67 408.43 203.47 393.26 199.27 378.1 194.71 362.93 190.5 347.76 187.3 332.59 185.59 317.42 185.65 302.25 198.41 295.76 211.72 287.67 225.6 278.06 240.04 267.17 255 255.31 270.43 242.86 286.23 230.24 302.27 217.87 318.44 206.15 334.56 195.39 350.48 185.85 366.05 177.65 381.09 170.83 395.49 165.3 415.49 159.09 421.87 157.31" stroke-dasharray="0 0" transform="rotate(48.48, 400, 400)" opacity="0.51"></path><path d="M421.97 173.73Q433.09 184.5 443.4 195.72 452.91 207.08 461.66 218.27 469.74 228.99 477.25 238.93 484.31 247.87 491.07 255.62 504.54 266.65 518.74 274.11 526.73 276.2 535.49 277.8 545.17 279.25 555.87 280.92 558.23 294.27 564.63 307.63 574.23 320.98 585.73 334.34 597.6 347.69 608.26 361.05 616.27 374.4 620.57 387.76 620.58 401.11 616.31 414.47 608.31 427.82 597.67 441.18 585.8 454.53 574.29 467.88 564.68 481.24 558.25 494.59 545.36 508.38 533.57 522.79 522.84 537.31 513.1 551.4 504.23 564.56 496.09 576.33 488.54 586.35 481.39 594.36 467.54 603.08 453.32 606.17 437 603.6 418.75 600.72 403.92 587.3 388.73 575.57 373.31 565.85 357.81 558.31 342.36 552.95 327.11 549.65 312.16 548.13 297.61 548.01 283.54 548.82 270 550.02 257.02 551.06 244.61 551.41 232.76 550.6 221.42 548.24 210.53 544.06 200.02 537.9 202.46 523.79 206.1 509.68 210.46 495.56 214.96 481.45 219 467.33 222.03 453.22 223.65 439.1 223.64 424.99 222.01 410.88 218.98 396.76 214.94 382.65 210.44 368.53 206.08 354.42 202.44 340.3 200.01 326.19 199.12 312.07 210.45 304.38 222.25 295.35 234.56 285.18 247.41 274.11 260.78 262.47 274.66 250.59 289 238.82 303.73 227.51 318.75 216.94 333.97 207.35 349.25 198.9 364.47 191.68 379.48 185.67 394.15 180.8 415.17 175.31 421.97 173.73" stroke-dasharray="0 0" transform="rotate(52.52, 400, 400)" opacity="0.54"></path><path d="M417.66 190.16Q426.32 200.22 434.38 210.69 441.92 221.33 449.01 231.88 455.75 242.08 462.25 251.7 468.64 260.52 475.05 268.36 481.64 275.12 488.52 280.74 495.85 285.22 503.76 288.65 512.34 291.18 521.71 293 531.93 294.36 543.07 295.54 547.37 308.01 554.71 320.48 564.25 332.95 574.9 345.42 585.45 357.89 594.69 370.35 601.57 382.82 605.3 395.29 605.47 407.76 602.04 420.23 595.41 432.7 586.34 445.16 575.87 457.63 565.17 470.1 555.49 482.57 547.91 495.04 534.85 508.25 522.69 521.48 511.43 534.33 501.05 546.4 491.5 557.34 482.71 566.86 474.59 574.74 467.04 580.87 453.2 587.13 439.88 588.98 426.13 586.66 411.42 584.29 396.9 571.97 382.34 561.04 367.86 551.76 353.56 544.27 339.54 538.63 325.88 534.76 312.65 532.5 299.9 531.59 287.66 531.7 275.94 532.45 264.74 533.42 254.04 534.18 243.79 534.34 233.95 533.52 221.4 523.13 222.34 501.83 226.76 488.83 231.08 475.82 234.83 462.82 237.56 449.81 238.98 436.81 238.91 423.8 237.37 410.8 234.53 397.79 230.71 384.79 226.36 371.78 221.96 358.78 218.03 345.77 215 332.76 213.22 319.76 223.16 311.14 233.49 301.55 244.24 291.18 255.46 280.31 267.16 269.2 279.36 258.14 292.03 247.41 305.16 237.26 318.68 227.89 332.55 219.47 346.67 212.11 360.97 205.83 375.32 200.6 389.63 196.36 410.72 191.55 417.66 190.16" stroke-dasharray="0 0" transform="rotate(56.56, 400, 400)" opacity="0.58"></path><path d="M409.79 206.58Q416.65 215.91 423.2 225.61 429.51 235.49 435.65 245.34 441.74 254.97 447.86 264.16 454.13 272.75 460.64 280.58 467.49 287.52 474.79 293.5 482.61 298.49 491.03 302.5 500.12 305.59 509.92 307.9 520.47 309.55 531.76 310.76 537.38 322.33 545.13 333.9 554.25 345.47 563.88 357.04 573.09 368.6 580.99 380.17 586.82 391.74 590.04 403.31 590.32 414.88 587.64 426.44 582.26 438.01 574.7 449.58 565.67 461.15 556.06 472.71 546.77 484.28 538.7 495.85 525.82 507.78 513.62 519.32 502.13 530.17 491.36 540.07 481.31 548.79 471.95 556.18 463.25 562.14 455.14 566.63 440.62 570.88 427.16 571.8 414.53 569.76 401.8 567.87 388.38 556.64 375.16 546.53 362.22 537.76 349.62 530.44 337.42 524.64 325.65 520.34 314.35 517.44 303.51 515.78 293.15 515.16 283.24 515.29 273.75 515.9 264.66 516.65 247.57 516.95 231.17 515.04 234.78 503.18 238.94 491.32 243.25 479.46 247.3 467.6 250.69 455.74 253.1 443.88 254.3 432.03 254.17 420.17 252.73 408.31 250.12 396.45 246.58 384.59 242.45 372.73 238.14 360.87 234.05 349.01 230.58 337.15 228.06 325.29 236.69 316.17 245.61 306.44 254.86 296.3 264.48 285.97 274.52 275.69 284.98 265.67 295.89 256.11 307.25 247.19 319.03 239.05 331.22 231.79 343.77 225.47 356.63 220.09 369.74 215.61 383.03 211.95 403.09 207.78 409.79 206.58" stroke-dasharray="0 0" transform="rotate(60.599999999999994, 400, 400)" opacity="0.62"></path><path d="M399.95 223Q405.77 231.58 411.52 240.48 417.27 249.57 423.1 258.68 429.07 267.66 435.26 276.34 441.74 284.59 448.58 292.26 455.84 299.25 463.57 305.47 471.83 310.87 480.63 315.42 490.02 319.13 500 322.05 510.56 324.27 521.71 325.89 528.04 336.52 535.72 347.16 544.14 357.8 552.63 368.44 560.5 379.07 567.15 389.71 572.04 400.35 574.77 410.98 575.14 421.62 573.12 432.26 568.86 442.9 562.7 453.53 555.14 464.17 546.77 474.8 538.26 485.44 530.29 496.08 517.93 506.24 506.05 515.76 494.68 524.46 483.85 532.18 473.58 538.82 463.88 544.29 446.42 551.15 430.49 554.78 416.69 554.42 403.82 552.86 397.77 551.99 391.82 551.45 380.12 541.3 368.76 532.04 357.77 523.84 347.17 516.8 336.99 510.98 327.23 506.38 317.88 502.97 308.93 500.66 292.3 499.05 276.61 499.21 256.88 494.68 255.85 478.6 259.91 467.91 263.58 457.22 266.57 446.53 268.64 435.83 269.62 425.14 269.44 414.45 268.11 403.76 265.74 393.07 262.51 382.38 258.69 371.69 254.57 360.99 250.48 350.3 246.76 339.61 243.68 328.92 251.12 319.78 258.74 310.37 266.59 300.84 274.72 291.39 283.16 282.17 291.94 273.34 301.1 265.05 310.63 257.4 320.57 250.48 330.9 244.35 341.61 239.02 352.69 234.49 364.1 230.71 375.81 227.6 393.86 224.03 399.95 223" stroke-dasharray="0 0" transform="rotate(64.64, 400, 400)" opacity="0.66"></path><path d="M390.11 239.43Q395.54 247.23 401.08 255.32 406.78 263.59 412.7 271.91 418.87 280.17 425.35 288.25 432.16 296.04 439.36 303.42 446.97 310.3 455 316.6 463.49 322.26 472.42 327.23 481.82 331.49 491.66 335.05 501.94 337.94 512.62 340.2 519.11 349.87 526.34 359.53 533.83 369.2 541.11 378.87 547.7 388.53 553.18 398.2 557.21 407.86 559.51 417.53 559.94 427.2 558.47 436.86 555.2 446.53 550.34 456.19 544.2 465.86 537.18 475.52 529.72 485.19 522.32 494.85 510.8 502.96 499.58 510.36 488.68 516.94 478.16 522.64 468.03 527.4 458.32 531.23 449.04 534.13 440.19 536.16 424.01 537.65 409.04 537.47 395.84 536.08 383.47 535.02 373.87 525.94 364.62 517.55 355.73 509.99 347.2 503.32 339.02 497.61 331.19 492.87 316.58 486.68 302.76 483.01 289.93 482.43 277.45 482.84 270.2 478.55 272.99 464.37 276.68 454.85 279.9 445.33 282.45 435.81 284.16 426.29 284.93 416.77 284.71 407.25 283.5 397.73 281.39 388.21 278.51 378.69 275.05 369.17 271.23 359.65 267.3 350.12 263.51 340.6 260.11 331.08 266.47 322.42 272.93 313.75 279.53 305.18 286.31 296.85 293.3 288.87 300.53 281.35 308.03 274.36 315.84 267.98 323.95 262.24 332.4 257.18 341.19 252.78 350.32 249.04 359.79 245.9 369.59 243.31 384.91 240.3 390.11 239.43" stroke-dasharray="0 0" transform="rotate(68.68, 400, 400)" opacity="0.70"></path><path d="M382.27 255.84Q393.4 270.11 405.47 285.02 418.66 299.9 433.12 314.05 448.94 326.86 466.11 337.81 484.57 346.57 504.17 353.05 516.81 370.36 529.29 387.66 539.09 404.97 544.24 422.27 543.71 439.57 537.59 456.88 527.13 474.18 514.43 491.48 493.75 502.85 473.8 511.42 454.83 517.11 437.02 520.12 420.48 520.96 405.24 520.38 391.27 519.26 378.46 518.61 363.82 503.08 350.31 490.01 337.8 479.81 326.12 472.6 315.04 468.22 304.33 466.18 292.03 457.64 296.21 432.75 299.67 416.03 299.97 399.3 297.06 382.57 291.51 365.85 284.45 349.12 277.29 332.39 288.16 317.04 299.29 302.66 310.88 289.84 323.17 278.98 336.33 270.29 350.51 263.73 374.04 257.45 382.27 255.84" stroke-dasharray="0 0" transform="rotate(72.72, 400, 400)" opacity="0.73"></path><path d="M377.99 272.26Q389.5 284.86 401.91 298.03 415.29 311.3 429.66 324.19 444.99 336.26 461.24 347.1 478.29 356.39 496 363.93 506.99 379.13 517.14 394.33 524.87 409.52 528.97 424.72 528.83 439.91 524.45 455.1 516.53 470.3 506.27 485.49 488.09 493.15 470.21 498.64 452.82 502.06 436.08 503.68 420.14 503.93 405.08 503.35 390.96 502.55 377.78 502.19 366.86 488.62 356.65 476.84 347 467.16 337.75 459.72 328.73 454.5 319.77 451.27 309.18 442.25 312.48 420.35 315.15 405.88 315.24 391.42 312.73 376.96 308.02 362.5 301.84 348.03 295.13 333.57 304.34 320.75 313.56 309.11 322.96 298.96 332.71 290.48 342.95 283.71 353.84 278.58 371.74 273.57 377.99 272.26" stroke-dasharray="0 0" transform="rotate(76.76, 400, 400)" opacity="0.77"></path><path d="M378.15 288.69Q389.71 299.59 401.96 310.95 414.89 322.49 428.46 333.91 442.61 344.89 457.29 355.14 472.38 364.42 487.77 372.53 496.77 385.56 504.65 398.58 510.52 411.6 513.71 424.62 513.85 437.64 510.92 450.66 505.27 463.68 497.53 476.7 482.14 481.31 466.77 484.44 451.56 486.24 436.62 486.95 422.06 486.89 407.99 486.4 394.48 485.89 381.57 485.76 373.56 474.15 365.85 463.79 358.33 454.89 350.9 447.57 335.74 438.45 319.9 433.48 324.97 421.21 328.68 408.95 330.6 396.69 330.5 384.43 328.42 372.16 324.57 359.9 319.39 347.64 313.49 335.37 321.27 325.37 328.92 316.49 336.56 308.85 344.28 302.52 352.19 297.47 360.41 293.6 373.59 289.72 378.15 288.69" stroke-dasharray="0 0" transform="rotate(80.80000000000001, 400, 400)" opacity="0.81"></path><path d="M382.7 305.11Q393.64 314.27 404.99 323.79 416.71 333.5 428.76 343.24 441.1 352.8 453.65 362.02 466.36 370.72 479.15 378.75 486.01 389.56 491.8 400.37 496.06 411.18 498.44 421.98 498.77 432.79 497 443.6 493.29 454.41 487.93 465.22 475.47 467.6 462.89 469.1 450.27 469.87 437.68 470.06 425.21 469.89 412.9 469.56 400.84 469.3 389.07 469.34 383.06 459.69 377.08 450.85 371.07 442.97 364.95 436.14 352.04 426.28 338.36 419.57 342.14 409.44 344.76 399.3 346 389.17 345.77 379.03 344.09 368.9 341.09 358.76 337.86 339.96 345.06 324.98 357.45 315.59 369.82 308.79 379.43 305.9 382.7 305.11" stroke-dasharray="0 0" transform="rotate(84.84, 400, 400)" opacity="0.85"></path><path d="M390.73 321.53Q409.92 336.55 429.68 352.27 449.75 367.92 469.85 382.74 478.58 399.92 483.18 417.09 482.7 434.26 477.25 451.43 458.02 452.94 438.32 453.13 418.48 452.82 398.77 452.92 389.21 438.01 379.11 425.36 368.27 415.34 356.56 408.06 360.68 391.93 361.04 375.8 357.56 359.66 350.95 343.52 361.56 334.76 371.58 328.38 385.98 322.83 390.73 321.53" stroke-dasharray="0 0" transform="rotate(88.88, 400, 400)" opacity="0.89"></path><path d="M400.64 337.96Q415.41 349.27 430.25 361.08 445.04 373.07 459.63 384.92 465 397.68 467.91 410.43 468.04 423.19 465.36 435.94 451.73 436.31 437.66 436.28 423.29 436.21 408.72 436.49 400.9 425.24 392.58 415.16 383.7 406.45 374.24 399.22 376.41 387.14 376.3 375.05 375.96 354.43 385.91 342.23 397.03 338.81 400.64 337.96" stroke-dasharray="0 0" transform="rotate(92.92, 400, 400)" opacity="0.92"></path><path d="M410.4 354.38Q429.62 369.77 448.33 385.89 452.64 402.7 452.2 419.51 434.99 419.6 416.91 420.07 404.61 405.47 391.18 393.03 391.57 376.87 387.81 360.71 405 355.53 410.4 354.38" stroke-dasharray="0 0" transform="rotate(96.96, 400, 400)" opacity="0.96"></path></g></svg>