<svg xmlns="http://www.w3.org/2000/svg" version="1.1" xmlns:xlink="http://www.w3.org/1999/xlink" xmlns:svgjs="http://svgjs.dev/svgjs" viewBox="0 0 800 800" opacity="0.26"><defs><linearGradient x1="50%" y1="0%" x2="50%" y2="100%" id="gggyrate-grad"><stop stop-color="#7431d4" stop-opacity="1" offset="0%"></stop><stop stop-color="#ccf381" stop-opacity="1" offset="100%"></stop></linearGradient></defs><g stroke-width="3" stroke="url(#gggyrate-grad)" fill="none"><path d="M328.2932575862824 -634.2058054398763C372.66542756044555 -659.8194756318139 427.33469450986695 -659.8194756318139 471.7068644840301 -634.1986347595314L1259.7933171085315 -179.19745483539327C1304.1654870826942 -153.5837846434555 1331.5001205574054 -106.23578232616421 1331.5001205574054 -55.00127126194366V855.0010885863326C1331.5001205574054 906.235599650553 1304.1654870826942 953.5836019678445 1259.7933171085315 979.2044428401268L471.7068644840301 1434.2056227642647C427.33469450986695 1459.8192929562028 372.66542756044555 1459.8192929562028 328.2932575862824 1434.1984520839205L-459.793195038219 979.1972721597822C-504.1653650123819 953.5836019678445 -531.4999984870926 906.235599650553 -531.4999984870926 855.0010885863326V-55.00127126194366C-531.4999984870926 -106.23578232616421 -504.1653650123819 -153.5837846434555 -459.793195038219 -179.20462551573792L328.2932575862824 -634.2058054398763Z " transform="rotate(115, 400, 400)" opacity="0.41"></path><path d="M331.41094469275527 -589.240150542397C373.85388988543286 -613.7401828999026 426.14623218487964 -613.7401828999026 468.58917737755723 -589.2332916307627L1222.4110016270804 -154.01477170332623C1264.853946819758 -129.51473934582066 1291.0001179694814 -84.22534582493324 1291.0001179694814 -35.2184221982875V835.2186176565854C1291.0001179694814 884.2255412832312 1264.853946819758 929.5149348041184 1222.4110016270804 954.0218260732581L468.58917737755723 1389.2403460006944C426.14623218487964 1413.7403783582004 373.85388988543286 1413.7403783582004 331.41094469275527 1389.2334870890604L-422.4108795567679 954.0149671616241C-464.8538247494455 929.5149348041184 -490.9999958991688 884.2255412832312 -490.9999958991688 835.2186176565854V-35.2184221982875C-490.9999958991688 -84.22534582493324 -464.8538247494455 -129.51473934582066 -422.4108795567679 -154.02163061496026L331.41094469275527 -589.240150542397Z " transform="rotate(110, 400, 400)" opacity="0.60"></path><path d="M334.5285707640719 -544.2748008206988C375.0422911752639 -567.6611953437724 424.9577088247361 -567.6611953437724 465.4714292359281 -544.2682536777752L1185.0286251104728 -128.83239374704044C1225.5423455216653 -105.44599922396685 1250.5000543464012 -62.21521449948341 1250.5000543464012 -15.43587831041259V815.4358415510571C1250.5000543464012 862.215177740128 1225.5423455216653 905.4459624646113 1185.0286251104728 928.8389041306084L465.4714292359281 1344.274764061343C424.9577088247361 1367.6611585844166 375.0422911752639 1367.6611585844166 334.5285707640719 1344.26821691842L-385.02862511047306 928.832356987685C-425.5423455216653 905.4459624646113 -450.5000543464012 862.215177740128 -450.5000543464012 815.4358415510571V-15.43587831041259C-450.5000543464012 -62.21521449948341 -425.5423455216653 -105.44599922396685 -385.02862511047306 -128.83894088996385L334.5285707640719 -544.2748008206988Z " transform="rotate(105, 400, 400)" opacity="0.61"></path><path d="M337.64625787054456 -499.3092069583758C376.23075350025147 -521.5819636470172 423.76924649974853 -521.5819636470172 462.35374212945544 -499.3029715841628L1147.646309629022 -103.64977165012965C1186.2308052587289 -81.37701496148816 1210.0000517584772 -40.2048390334088 1210.0000517584772 4.346909718087318V795.6533095861537C1210.0000517584772 840.2050583376497 1186.2308052587289 881.3772342657292 1147.646309629022 903.6562263285834L462.35374212945544 1299.3094262626164C423.76924649974853 1321.582182951258 376.23075350025147 1321.582182951258 337.64625787054456 1299.303190888404L-347.6463096290219 903.6499909543707C-386.2308052587289 881.3772342657292 -410.00005175847735 840.2050583376497 -410.00005175847735 795.6533095861537V4.346909718087318C-410.00005175847735 -40.2048390334088 -386.2308052587289 -81.37701496148816 -347.6463096290219 -103.65600702434244L337.64625787054456 -499.3092069583758Z " transform="rotate(100, 400, 400)" opacity="0.59"></path><path d="M340.76394497701733 -454.3438572366777C377.419215825239 -475.5029760908871 422.580784174761 -475.5029760908871 459.2360550229828 -454.33793363117536L1110.2639941475709 -78.46739369384386C1146.9192649957924 -57.30827483963458 1169.5000491705534 -18.194707707959083 1169.5000491705534 24.129453605962226V775.8705334806252C1169.5000491705534 818.1946947945466 1146.9192649957924 857.3082619262218 1110.2639941475709 878.4733043859335L459.2360550229828 1254.3438443232649C422.580784174761 1275.5029631774744 377.419215825239 1275.5029631774744 340.76394497701733 1254.337920717763L-310.2639941475708 878.4673807804313C-346.91926499579245 857.3082619262218 -369.50004917055344 818.1946947945466 -369.50004917055344 775.8705334806252V24.129453605962226C-369.50004917055344 -18.194707707959083 -346.91926499579245 -57.30827483963458 -310.2639941475708 -78.47331729934604L340.76394497701733 -454.3438572366777Z " transform="rotate(95, 400, 400)" opacity="0.12"></path><path d="M343.8816320834901 -409.3783854446671C378.60767815022643 -429.4238664644445 421.39232184977357 -429.4238664644445 456.1183679165099 -409.37277360787544L1072.8816786661198 -53.28489366724557C1107.607724732856 -33.23941264746827 1129.0000465826297 3.815545687803251 1129.0000465826297 43.91211956414975V756.0878794454095C1129.0000465826297 796.1844533217559 1107.607724732856 833.2394116570274 1072.8816786661198 853.2905045135963L456.1183679165099 1209.378384454226C421.39232184977357 1229.4238654740034 378.60767815022643 1229.4238654740034 343.8816320834901 1209.3727726174345L-272.88167866611974 853.2848926768047C-307.60772473285596 833.2394116570274 -329.0000465826296 796.1844533217559 -329.0000465826296 756.0878794454095V43.91211956414975C-329.0000465826296 3.815545687803251 -307.60772473285596 -33.23941264746827 -272.88167866611974 -53.29050550403713L343.8816320834901 -409.3783854446671Z " transform="rotate(90, 400, 400)" opacity="0.16"></path><path d="M346.99928867238475 -364.4129289114456C379.79610995763574 -383.34477209679085 420.203829007208 -383.34477209679085 453.000650292459 -364.40762884336453L1035.4993326670906 -28.10240889943634C1068.2961539523412 -9.17056571409114 1088.5000134771276 25.82578382477641 1088.5000134771276 63.694770263548094V736.3052101514045C1088.5000134771276 774.174196590176 1068.2961539523412 809.1705461290435 1035.4993326670906 828.1076893824697L453.000650292459 1164.412909326398C420.203829007208 1183.344752511743 379.79610995763574 1183.344752511743 346.99928867238475 1164.407609258317L-235.49939370224678 828.1023893143888C-268.29621498749765 809.1705461290435 -288.50007451228385 774.174196590176 -288.50007451228385 736.3052101514045V63.694770263548094C-288.50007451228385 25.82578382477641 -268.29621498749765 -9.17056571409114 -235.49939370224678 -28.107708967517283L346.99928867238475 -364.4129289114456Z " transform="rotate(85, 400, 400)" opacity="0.57"></path><path d="M350.1169757788575 -319.447457119435C380.98457228262316 -337.26566247034816 419.0153666822206 -337.26566247034816 449.8829631859862 -319.4424688200646L998.1170171856393 -2.9199088728380502C1028.9846136894048 14.898296478075054 1048.0000108892036 47.83603722053863 1048.0000108892036 83.47743622173562V716.5225561161888C1048.0000108892036 752.1639551173855 1028.9846136894048 785.1016958598489 998.1170171856393 802.9248895101323L449.8829631859862 1119.447449457359C419.0153666822206 1137.265654808272 380.98457228262316 1137.265654808272 350.1169757788575 1119.4424611579889L-198.1170782207957 802.9199012107622C-228.98467472456122 785.1016958598489 -248.00007192436 752.1639551173855 -248.00007192436 716.5225561161888V83.47743622173562C-248.00007192436 47.83603722053863 -228.98467472456122 14.898296478075054 -198.1170782207957 -2.924897172208375L350.1169757788575 -319.447457119435Z " transform="rotate(80, 400, 400)" opacity="0.75"></path><path d="M353.2346628853303 -274.4819853274244C382.1730346076105 -291.18655284390553 417.8269043572333 -291.18655284390553 446.76527607951346 -274.4773087967647L960.7347017041882 22.262591153760127C989.6730734264684 38.96715867024136 1007.5000083012799 69.84629061630085 1007.5000083012799 103.26010217992302V696.7399020809726C1007.5000083012799 730.1537136445947 989.6730734264684 761.0328455906542 960.7347017041882 777.7420896377951L446.76527607951346 1074.48198958832C417.8269043572333 1091.1865571048008 382.1730346076105 1091.1865571048008 353.2346628853303 1074.4773130576602L-160.73476273934455 777.7374131071354C-189.67313446162478 761.0328455906542 -207.50006933643613 730.1537136445947 -207.50006933643613 696.7399020809726V103.26010217992302C-207.50006933643613 69.84629061630085 -189.67313446162478 38.96715867024136 -160.73476273934455 22.257914623100532L353.2346628853303 -274.4819853274244Z " transform="rotate(75, 400, 400)" opacity="0.88"></path><path d="M356.35234999180307 -229.51651353541382C383.3614969325979 -245.10744321746287 416.63844203224585 -245.10744321746287 443.6475889730407 -229.51214877346473L923.3523862227373 47.44509118035842C950.3615331635322 63.03602086240744 967.0000057133559 91.85654401206307 967.0000057133559 123.04276813811043V676.9572480457566C967.0000057133559 708.143472171804 950.3615331635322 736.9639953214596 923.3523862227373 752.5592897654576L443.6475889730407 1029.5165297192807C416.63844203224585 1045.1074594013296 383.3614969325979 1045.1074594013296 356.35234999180307 1029.5121649573318L-123.35244725789346 752.5549250035087C-150.36159419868835 736.9639953214596 -167.00006674851227 708.143472171804 -167.00006674851227 676.9572480457566V123.04276813811043C-167.00006674851227 91.85654401206307 -150.36159419868835 63.03602086240744 -123.35244725789346 47.44072641840944L356.35234999180307 -229.51651353541382Z " transform="rotate(70, 400, 400)" opacity="0.13"></path><path d="M359.47003709827595 -184.55104174340323C384.54995925758533 -199.0283335910202 415.4499797072584 -199.0283335910202 440.5299018665679 -184.54698875016481L885.9700707412862 72.62759120695671C911.0499929005957 87.10488305457375 926.5000031254322 113.86679740782529 926.5000031254322 142.82543409629784V657.1745940105411C926.5000031254322 686.1332306990134 911.0499929005957 712.895145052265 885.9700707412862 727.3764898931204L440.5299018665679 984.5510698502419C415.4499797072584 999.0283616978586 384.54995925758533 999.0283616978586 359.47003709827595 984.5470168570034L-85.97013177644237 727.3724368998819C-111.05005393575186 712.895145052265 -126.50006416058841 686.1332306990134 -126.50006416058841 657.1745940105411V142.82543409629784C-126.50006416058841 113.86679740782529 -111.05005393575186 87.10488305457375 -85.97013177644237 72.62353821371835L359.47003709827595 -184.55104174340323Z " transform="rotate(65, 400, 400)" opacity="0.17"></path><path d="M362.5877242047486 -139.5855852101817C385.73842158257276 -152.94923922336662 414.261517382271 -152.94923922336662 437.41221476009514 -139.5818439856539L848.5877552598349 97.81007597476594C871.7384526376593 111.17372998795076 886.0000005375082 135.87703554479845 886.0000005375082 162.6080847956962V637.3919247165359C886.0000005375082 664.1229739674336 871.7384526376593 688.8262795242813 848.5877552598349 702.1936747619939L437.41221476009514 939.5855947224136C414.261517382271 952.9492487355985 385.73842158257276 952.9492487355985 362.5877242047486 939.581853497886L-48.587816294991285 702.189933537466C-71.73851367281543 688.8262795242813 -86.00006157266455 664.1229739674336 -86.00006157266455 637.3919247165359V162.6080847956962C-86.00006157266455 135.87703554479845 -71.73851367281543 111.17372998795076 -48.587816294991285 97.8063347502383L362.5877242047486 -139.5855852101817Z " transform="rotate(60, 400, 400)" opacity="0.74"></path><path d="M365.7054113112214 -94.62009815938205C386.9268839075602 -106.8701143381349 413.07305505728357 -106.8701143381349 434.29452765362237 -94.61666870356493L811.2054397783841 122.99259126015329C832.4269123747226 135.24260743890608 845.4999979495844 157.88730419934973 845.4999979495844 182.39076601267266V617.6092859401091C845.4999979495844 642.112747753432 832.4269123747226 664.7574445138756 811.2054397783841 677.0108901484455L434.29452765362237 894.6201501121636C413.07305505728357 906.8701662909166 386.9268839075602 906.8701662909166 365.7054113112214 894.6167206563466L-11.205500813540198 677.0074606926285C-32.426973409879 664.7574445138756 -45.50005898474063 642.112747753432 -45.50005898474063 617.6092859401091V182.39076601267266C-45.50005898474063 157.88730419934973 -32.426973409879 135.24260743890608 -11.205500813540198 122.98916180433628L365.7054113112214 -94.62009815938205Z " transform="rotate(55, 400, 400)" opacity="0.11"></path><path d="M368.82309841769415 -49.654641626160526C388.1153462325476 -60.79101997048127 411.88459273229614 -60.79101997048127 431.1768405471496 -49.65152393905407L773.8231242969327 148.17507602796252C793.1153721117862 159.31145437228327 804.9999953616605 179.89754233632294 804.9999953616605 202.173416712071V597.8266166461042C804.9999953616605 620.1024910218522 793.1153721117862 640.6885789858919 773.8231242969327 651.8280750173191L431.1768405471496 849.6546749843355C411.88459273229614 860.7910533286563 388.1153462325476 860.7910533286563 368.82309841769415 849.6515572972294L26.17681466791089 651.8249573302127C6.884566853057436 640.6885789858919 -5.000056396816774 620.1024910218522 -5.000056396816774 597.8266166461042V202.173416712071C-5.000056396816774 179.89754233632294 6.884566853057436 159.31145437228327 26.17681466791089 148.17195834085612L368.82309841769415 -49.654641626160526Z " transform="rotate(50, 400, 400)" opacity="0.55"></path><path d="M371.9408465593232 -4.689230869306186C389.3038695926914 -14.711971379194864 410.69619144246485 -14.711971379194864 428.0592144758331 -4.68642495091035L736.440869850638 173.35751501940456C753.8038928840061 183.3802555292932 764.500053808893 201.90773469692897 764.500053808893 221.95602163510222V578.0439015757321C764.500053808893 598.0921885139053 753.8038928840061 616.619667681541 736.440869850638 626.6452141098255L428.0592144758331 804.6891540801403C410.69619144246485 814.711894590029 389.3038695926914 814.711894590029 371.9408465593232 804.6863481617447L63.55919118451823 626.6424081914297C46.19616815115012 616.619667681541 35.500007226263335 598.0921885139053 35.500007226263335 578.0439015757321V221.95602163510222C35.500007226263335 201.90773469692897 46.19616815115012 183.3802555292932 63.55919118451823 173.35470910100878L371.9408465593232 -4.689230869306186Z " transform="rotate(45, 400, 400)" opacity="0.23"></path><path d="M375.05853366579595 40.27627144028253C390.4923319176787 31.36716876482592 409.50772911747754 31.36716876482592 424.9415273693603 40.27876558996769L699.0585543691868 198.54004556358097C714.4923526210696 207.44914823903753 724.000051220969 223.9180186102693 724.000051220969 241.7387181108678V558.2612780580944C724.000051220969 576.0819775586928 714.4923526210696 592.5508479299244 699.0585543691868 601.4624447550661L424.9415273693603 759.7237247286795C409.50772911747754 768.632827404136 390.4923319176787 768.632827404136 375.05853366579595 759.7212305789944L100.94150666596937 601.4599506053811C85.50770841408661 592.5508479299244 76.0000098141872 576.0819775586928 76.0000098141872 558.2612780580944V241.7387181108678C76.0000098141872 223.9180186102693 85.50770841408661 207.44914823903753 100.94150666596937 198.5375514138958L375.05853366579595 40.27627144028253Z " transform="rotate(40, 400, 400)" opacity="0.82"></path><path d="M378.1762207722687 85.24174323229306C391.68079424266614 77.44627839126858 408.3192667924901 77.44627839126858 421.82384026288753 85.2439256132676L661.6762388877358 223.7225455901792C675.1808123581333 231.51801043120372 683.5000486330451 245.92827200603153 683.5000486330451 261.5213840690552V538.4786240228783C683.5000486330451 554.071736085902 675.1808123581333 568.4819976607298 661.6762388877358 576.2796448827288L421.82384026288753 714.7582648596403C408.3192667924901 722.5537297006648 391.68079424266614 722.5537297006648 378.1762207722687 714.7560824786659L138.32382214742046 576.2774625017544C124.81924867702304 568.4819976607298 116.50001240211105 554.071736085902 116.50001240211105 538.4786240228783V261.5213840690552C116.50001240211105 245.92827200603153 124.81924867702304 231.51801043120372 138.32382214742046 223.72036320920472L378.1762207722687 85.24174323229306Z " transform="rotate(35, 400, 400)" opacity="0.38"></path><path d="M381.29389261995243 130.20721502430365C392.8692413088645 123.52538801771124 407.1307892087136 123.52538801771124 418.7061378976257 130.20908563656758L624.2939081474956 248.9050456167775C635.8692568364078 255.5868726233699 643.0000307863322 267.93852540179375 643.0000307863322 281.3040500272426V518.6959699876625C643.0000307863322 532.0614946131113 635.8692568364078 544.4131473915352 624.2939081474956 551.0968450103915L418.7061378976257 669.7928049906013C407.1307892087136 676.4746319971938 392.8692413088645 676.4746319971938 381.29389261995243 669.7909343783375L175.70612237008248 551.0949743981275C164.1307736811704 544.4131473915352 156.99999973124585 532.0614946131113 156.99999973124585 518.6959699876625V281.3040500272426C156.99999973124585 267.93852540179375 164.1307736811704 255.5868726233699 175.70612237008248 248.90317500451368L381.29389261995243 130.20721502430365Z " transform="rotate(30, 400, 400)" opacity="0.08"></path><path d="M384.41156446763614 175.17265629873611C394.05768837506287 169.60446712657577 405.94231162493713 169.60446712657577 415.58843553236386 175.17421514228937L586.9115774072554 274.08751512579767C596.5577013146822 279.65570429795804 602.5000129396193 289.94874827997785 602.5000129396193 301.0866854678519V498.9132854348685C602.5000129396193 510.05122262274244 596.5577013146822 520.3442666047624 586.9115774072554 525.9140146204759L415.58843553236386 624.8273146039842C405.94231162493713 630.3955037761446 394.05768837506287 630.3955037761446 384.41156446763614 624.8257557604311L213.0884225927445 525.9124557769228C203.44229868531778 520.3442666047624 197.49998706038065 510.05122262274244 197.49998706038065 498.9132854348685V301.0866854678519C197.49998706038065 289.94874827997785 203.44229868531778 279.65570429795804 213.0884225927445 274.08595628224447L384.41156446763614 175.17265629873611Z " transform="rotate(25, 400, 400)" opacity="0.69"></path><path d="M387.5292515741089 220.1381280907467C395.2461507000503 215.68357675301843 404.7538492999497 215.68357675301843 412.4707484258911 220.13937516558934L549.5292619258043 299.27001515239596C557.2461610517457 303.72456649012423 562.0000103516954 311.9590016757401 562.0000103516954 320.8693514260394V479.13063139965266C562.0000103516954 488.0409811499519 557.2461610517457 496.2754163355677 549.5292619258043 500.73121474813854L412.4707484258911 579.8618547349452C404.7538492999497 584.3164060726735 395.2461507000503 584.3164060726735 387.5292515741089 579.8606076601027L250.4707380741956 500.72996767329596C242.7538389482542 496.2754163355677 237.9999896483045 488.0409811499519 237.9999896483045 479.13063139965266V320.8693514260394C237.9999896483045 311.9590016757401 242.7538389482542 303.72456649012423 250.4707380741956 299.2687680775534L387.5292515741089 220.1381280907467Z " transform="rotate(20, 400, 400)" opacity="0.97"></path><path d="M390.6469386805817 265.1035998827573C396.4346130250377 261.7626863794611 403.5653869749623 261.7626863794611 409.3530613194183 265.10453518888926L512.1469464443533 324.45251517899425C517.9346207888093 327.7934286822904 521.5000077637716 333.96925507150235 521.5000077637716 340.6520173842268V459.3479773644367C521.5000077637716 466.03073967716114 517.9346207888093 472.20656606637306 512.1469464443533 475.5484148758012L409.3530613194183 534.8963948659061C403.5653869749623 538.2373083692023 396.4346130250377 538.2373083692023 390.6469386805817 534.8954595597743L287.85305355564674 475.54747956966924C282.06537921119065 472.20656606637306 278.4999922362284 466.03073967716114 278.4999922362284 459.3479773644367V340.6520173842268C278.4999922362284 333.96925507150235 282.06537921119065 327.7934286822904 287.85305355564674 324.4515798728623L390.6469386805817 265.1035998827573Z " transform="rotate(15, 400, 400)" opacity="0.91"></path><path d="M393.76462578705446 310.06906404537335C397.62307535002515 307.8417883765092 402.37692464997485 307.8417883765092 406.23537421294554 310.0696875827947L474.7646309629022 349.63500757619795C478.62308052587287 351.86228324506214 481.0000051758477 355.9795008378701 481.0000051758477 360.43467571301966V439.56531569982633C481.0000051758477 444.02049057497595 478.62308052587287 448.13770816778384 474.7646309629022 450.36560737406927L406.23537421294554 489.9309273674726C402.37692464997485 492.1582030363368 397.62307535002515 492.1582030363368 393.76462578705446 489.93030383005134L325.2353690370978 450.364983836648C321.37691947412713 448.13770816778384 318.9999948241523 444.02049057497595 318.9999948241523 439.56531569982633V360.43467571301966C318.9999948241523 355.9795008378701 321.37691947412713 351.86228324506214 325.2353690370978 349.6343840387767L393.76462578705446 310.06906404537335Z " transform="rotate(10, 400, 400)" opacity="0.72"></path><path d="M396.8823128935272 355.0345434667785C398.8115376750126 353.9209056323464 401.1884623249874 353.9209056323464 403.1176871064728 355.0348552354891L437.3823154814511 374.8175152321908C439.31154026293643 375.93115306662287 440.50000258792386 377.98976186302684 440.50000258792386 380.21734930060165V419.78266929400496C440.50000258792386 422.0102567315798 439.31154026293643 424.0688655279837 437.3823154814511 425.1828151311264L403.1176871064728 444.9654751278281C401.1884623249874 446.0791129622602 398.8115376750126 446.0791129622602 396.8823128935272 444.96516335911747L362.6176845185489 425.1825033624158C360.68845973706357 424.0688655279837 359.49999741207614 422.0102567315798 359.49999741207614 419.78266929400496V380.21734930060165C359.49999741207614 377.98976186302684 360.68845973706357 375.93115306662287 362.6176845185489 374.81720346348015L396.8823128935272 355.0345434667785Z " transform="rotate(5, 400, 400)" opacity="0.93"></path></g></svg>