<svg xmlns="http://www.w3.org/2000/svg" version="1.1" xmlns:xlink="http://www.w3.org/1999/xlink" xmlns:svgjs="http://svgjs.dev/svgjs" viewBox="0 0 800 800" opacity="0.75" width="800" height="800"><g stroke-width="2.25" stroke="#7431d4ff" fill="none"><rect width="36.36363636363637" height="5.421052631578947" x="-18.181818181818183" y="-2.7105263157894735" stroke="none" fill="#ccf381ff" rx="2.7105263157894735" transform="rotate(45, 0, 0)"></rect><rect width="5.421052631578947" height="36.36363636363637" x="-2.7105263157894735" y="-18.181818181818183" stroke="none" fill="#ccf381ff" rx="2.7105263157894735" transform="rotate(45, 0, 0)"></rect><rect width="36.36363636363637" height="5.421052631578947" x="81.81818181818181" y="-2.7105263157894735" stroke="none" fill="#7431d4ff" rx="2.7105263157894735" transform="rotate(45, 100, 0)"></rect><rect width="5.421052631578947" height="36.36363636363637" x="97.28947368421052" y="-18.181818181818183" stroke="none" fill="#7431d4ff" rx="2.7105263157894735" transform="rotate(45, 100, 0)"></rect><rect width="36.36363636363637" height="5.421052631578947" x="181.8181818181818" y="-2.7105263157894735" stroke="none" fill="#ccf381ff" rx="2.7105263157894735" transform="rotate(45, 200, 0)"></rect><rect width="5.421052631578947" height="36.36363636363637" x="197.28947368421052" y="-18.181818181818183" stroke="none" fill="#ccf381ff" rx="2.7105263157894735" transform="rotate(45, 200, 0)"></rect><rect width="36.36363636363637" height="5.421052631578947" x="281.8181818181818" y="-2.7105263157894735" stroke="none" fill="#7431d4ff" rx="2.7105263157894735" transform="rotate(45, 300, 0)"></rect><rect width="5.421052631578947" height="36.36363636363637" x="297.2894736842105" y="-18.181818181818183" stroke="none" fill="#7431d4ff" rx="2.7105263157894735" transform="rotate(45, 300, 0)"></rect><rect width="36.36363636363637" height="5.421052631578947" x="381.8181818181818" y="-2.7105263157894735" stroke="none" fill="#ccf381ff" rx="2.7105263157894735" transform="rotate(45, 400, 0)"></rect><rect width="5.421052631578947" height="36.36363636363637" x="397.2894736842105" y="-18.181818181818183" stroke="none" fill="#ccf381ff" rx="2.7105263157894735" transform="rotate(45, 400, 0)"></rect><rect width="36.36363636363637" height="5.421052631578947" x="481.8181818181818" y="-2.7105263157894735" stroke="none" fill="#7431d4ff" rx="2.7105263157894735" transform="rotate(45, 500, 0)"></rect><rect width="5.421052631578947" height="36.36363636363637" x="497.2894736842105" y="-18.181818181818183" stroke="none" fill="#7431d4ff" rx="2.7105263157894735" transform="rotate(45, 500, 0)"></rect><rect width="36.36363636363637" height="5.421052631578947" x="581.8181818181819" y="-2.7105263157894735" stroke="none" fill="#ccf381ff" rx="2.7105263157894735" transform="rotate(45, 600, 0)"></rect><rect width="5.421052631578947" height="36.36363636363637" x="597.2894736842105" y="-18.181818181818183" stroke="none" fill="#ccf381ff" rx="2.7105263157894735" transform="rotate(45, 600, 0)"></rect><rect width="36.36363636363637" height="5.421052631578947" x="681.8181818181819" y="-2.7105263157894735" stroke="none" fill="#7431d4ff" rx="2.7105263157894735" transform="rotate(45, 700, 0)"></rect><rect width="5.421052631578947" height="36.36363636363637" x="697.2894736842105" y="-18.181818181818183" stroke="none" fill="#7431d4ff" rx="2.7105263157894735" transform="rotate(45, 700, 0)"></rect><rect width="36.36363636363637" height="5.421052631578947" x="781.8181818181819" y="-2.7105263157894735" stroke="none" fill="#ccf381ff" rx="2.7105263157894735" transform="rotate(45, 800, 0)"></rect><rect width="5.421052631578947" height="36.36363636363637" x="797.2894736842105" y="-18.181818181818183" stroke="none" fill="#ccf381ff" rx="2.7105263157894735" transform="rotate(45, 800, 0)"></rect><rect width="36.36363636363637" height="5.421052631578947" x="-18.181818181818183" y="70.01674641148325" stroke="none" fill="#7431d4ff" rx="2.7105263157894735" transform="rotate(45, 0, 72.72727272727273)"></rect><rect width="5.421052631578947" height="36.36363636363637" x="-2.7105263157894735" y="54.54545454545455" stroke="none" fill="#7431d4ff" rx="2.7105263157894735" transform="rotate(45, 0, 72.72727272727273)"></rect><rect width="36.36363636363637" height="5.421052631578947" x="81.81818181818181" y="70.01674641148325" stroke="none" fill="#ccf381ff" rx="2.7105263157894735" transform="rotate(45, 100, 72.72727272727273)"></rect><rect width="5.421052631578947" height="36.36363636363637" x="97.28947368421052" y="54.54545454545455" stroke="none" fill="#ccf381ff" rx="2.7105263157894735" transform="rotate(45, 100, 72.72727272727273)"></rect><rect width="36.36363636363637" height="5.421052631578947" x="181.8181818181818" y="70.01674641148325" stroke="none" fill="#7431d4ff" rx="2.7105263157894735" transform="rotate(45, 200, 72.72727272727273)"></rect><rect width="5.421052631578947" height="36.36363636363637" x="197.28947368421052" y="54.54545454545455" stroke="none" fill="#7431d4ff" rx="2.7105263157894735" transform="rotate(45, 200, 72.72727272727273)"></rect><rect width="36.36363636363637" height="5.421052631578947" x="281.8181818181818" y="70.01674641148325" stroke="none" fill="#ccf381ff" rx="2.7105263157894735" transform="rotate(45, 300, 72.72727272727273)"></rect><rect width="5.421052631578947" height="36.36363636363637" x="297.2894736842105" y="54.54545454545455" stroke="none" fill="#ccf381ff" rx="2.7105263157894735" transform="rotate(45, 300, 72.72727272727273)"></rect><rect width="36.36363636363637" height="5.421052631578947" x="381.8181818181818" y="70.01674641148325" stroke="none" fill="#7431d4ff" rx="2.7105263157894735" transform="rotate(45, 400, 72.72727272727273)"></rect><rect width="5.421052631578947" height="36.36363636363637" x="397.2894736842105" y="54.54545454545455" stroke="none" fill="#7431d4ff" rx="2.7105263157894735" transform="rotate(45, 400, 72.72727272727273)"></rect><rect width="36.36363636363637" height="5.421052631578947" x="481.8181818181818" y="70.01674641148325" stroke="none" fill="#ccf381ff" rx="2.7105263157894735" transform="rotate(45, 500, 72.72727272727273)"></rect><rect width="5.421052631578947" height="36.36363636363637" x="497.2894736842105" y="54.54545454545455" stroke="none" fill="#ccf381ff" rx="2.7105263157894735" transform="rotate(45, 500, 72.72727272727273)"></rect><rect width="36.36363636363637" height="5.421052631578947" x="581.8181818181819" y="70.01674641148325" stroke="none" fill="#7431d4ff" rx="2.7105263157894735" transform="rotate(45, 600, 72.72727272727273)"></rect><rect width="5.421052631578947" height="36.36363636363637" x="597.2894736842105" y="54.54545454545455" stroke="none" fill="#7431d4ff" rx="2.7105263157894735" transform="rotate(45, 600, 72.72727272727273)"></rect><rect width="36.36363636363637" height="5.421052631578947" x="681.8181818181819" y="70.01674641148325" stroke="none" fill="#ccf381ff" rx="2.7105263157894735" transform="rotate(45, 700, 72.72727272727273)"></rect><rect width="5.421052631578947" height="36.36363636363637" x="697.2894736842105" y="54.54545454545455" stroke="none" fill="#ccf381ff" rx="2.7105263157894735" transform="rotate(45, 700, 72.72727272727273)"></rect><rect width="36.36363636363637" height="5.421052631578947" x="781.8181818181819" y="70.01674641148325" stroke="none" fill="#7431d4ff" rx="2.7105263157894735" transform="rotate(45, 800, 72.72727272727273)"></rect><rect width="5.421052631578947" height="36.36363636363637" x="797.2894736842105" y="54.54545454545455" stroke="none" fill="#7431d4ff" rx="2.7105263157894735" transform="rotate(45, 800, 72.72727272727273)"></rect><rect width="36.36363636363637" height="5.421052631578947" x="-18.181818181818183" y="142.744019138756" stroke="none" fill="#ccf381ff" rx="2.7105263157894735" transform="rotate(45, 0, 145.45454545454547)"></rect><rect width="5.421052631578947" height="36.36363636363637" x="-2.7105263157894735" y="127.27272727272728" stroke="none" fill="#ccf381ff" rx="2.7105263157894735" transform="rotate(45, 0, 145.45454545454547)"></rect><rect width="36.36363636363637" height="5.421052631578947" x="81.81818181818181" y="142.744019138756" stroke="none" fill="#7431d4ff" rx="2.7105263157894735" transform="rotate(45, 100, 145.45454545454547)"></rect><rect width="5.421052631578947" height="36.36363636363637" x="97.28947368421052" y="127.27272727272728" stroke="none" fill="#7431d4ff" rx="2.7105263157894735" transform="rotate(45, 100, 145.45454545454547)"></rect><rect width="36.36363636363637" height="5.421052631578947" x="181.8181818181818" y="142.744019138756" stroke="none" fill="#ccf381ff" rx="2.7105263157894735" transform="rotate(45, 200, 145.45454545454547)"></rect><rect width="5.421052631578947" height="36.36363636363637" x="197.28947368421052" y="127.27272727272728" stroke="none" fill="#ccf381ff" rx="2.7105263157894735" transform="rotate(45, 200, 145.45454545454547)"></rect><rect width="36.36363636363637" height="5.421052631578947" x="281.8181818181818" y="142.744019138756" stroke="none" fill="#7431d4ff" rx="2.7105263157894735" transform="rotate(45, 300, 145.45454545454547)"></rect><rect width="5.421052631578947" height="36.36363636363637" x="297.2894736842105" y="127.27272727272728" stroke="none" fill="#7431d4ff" rx="2.7105263157894735" transform="rotate(45, 300, 145.45454545454547)"></rect><rect width="36.36363636363637" height="5.421052631578947" x="381.8181818181818" y="142.744019138756" stroke="none" fill="#ccf381ff" rx="2.7105263157894735" transform="rotate(45, 400, 145.45454545454547)"></rect><rect width="5.421052631578947" height="36.36363636363637" x="397.2894736842105" y="127.27272727272728" stroke="none" fill="#ccf381ff" rx="2.7105263157894735" transform="rotate(45, 400, 145.45454545454547)"></rect><rect width="36.36363636363637" height="5.421052631578947" x="481.8181818181818" y="142.744019138756" stroke="none" fill="#7431d4ff" rx="2.7105263157894735" transform="rotate(45, 500, 145.45454545454547)"></rect><rect width="5.421052631578947" height="36.36363636363637" x="497.2894736842105" y="127.27272727272728" stroke="none" fill="#7431d4ff" rx="2.7105263157894735" transform="rotate(45, 500, 145.45454545454547)"></rect><rect width="36.36363636363637" height="5.421052631578947" x="581.8181818181819" y="142.744019138756" stroke="none" fill="#ccf381ff" rx="2.7105263157894735" transform="rotate(45, 600, 145.45454545454547)"></rect><rect width="5.421052631578947" height="36.36363636363637" x="597.2894736842105" y="127.27272727272728" stroke="none" fill="#ccf381ff" rx="2.7105263157894735" transform="rotate(45, 600, 145.45454545454547)"></rect><rect width="36.36363636363637" height="5.421052631578947" x="681.8181818181819" y="142.744019138756" stroke="none" fill="#7431d4ff" rx="2.7105263157894735" transform="rotate(45, 700, 145.45454545454547)"></rect><rect width="5.421052631578947" height="36.36363636363637" x="697.2894736842105" y="127.27272727272728" stroke="none" fill="#7431d4ff" rx="2.7105263157894735" transform="rotate(45, 700, 145.45454545454547)"></rect><rect width="36.36363636363637" height="5.421052631578947" x="781.8181818181819" y="142.744019138756" stroke="none" fill="#ccf381ff" rx="2.7105263157894735" transform="rotate(45, 800, 145.45454545454547)"></rect><rect width="5.421052631578947" height="36.36363636363637" x="797.2894736842105" y="127.27272727272728" stroke="none" fill="#ccf381ff" rx="2.7105263157894735" transform="rotate(45, 800, 145.45454545454547)"></rect><rect width="36.36363636363637" height="5.421052631578947" x="-18.181818181818183" y="215.4712918660287" stroke="none" fill="#7431d4ff" rx="2.7105263157894735" transform="rotate(45, 0, 218.1818181818182)"></rect><rect width="5.421052631578947" height="36.36363636363637" x="-2.7105263157894735" y="200" stroke="none" fill="#7431d4ff" rx="2.7105263157894735" transform="rotate(45, 0, 218.1818181818182)"></rect><rect width="36.36363636363637" height="5.421052631578947" x="81.81818181818181" y="215.4712918660287" stroke="none" fill="#ccf381ff" rx="2.7105263157894735" transform="rotate(45, 100, 218.1818181818182)"></rect><rect width="5.421052631578947" height="36.36363636363637" x="97.28947368421052" y="200" stroke="none" fill="#ccf381ff" rx="2.7105263157894735" transform="rotate(45, 100, 218.1818181818182)"></rect><rect width="36.36363636363637" height="5.421052631578947" x="181.8181818181818" y="215.4712918660287" stroke="none" fill="#7431d4ff" rx="2.7105263157894735" transform="rotate(45, 200, 218.1818181818182)"></rect><rect width="5.421052631578947" height="36.36363636363637" x="197.28947368421052" y="200" stroke="none" fill="#7431d4ff" rx="2.7105263157894735" transform="rotate(45, 200, 218.1818181818182)"></rect><rect width="36.36363636363637" height="5.421052631578947" x="281.8181818181818" y="215.4712918660287" stroke="none" fill="#ccf381ff" rx="2.7105263157894735" transform="rotate(45, 300, 218.1818181818182)"></rect><rect width="5.421052631578947" height="36.36363636363637" x="297.2894736842105" y="200" stroke="none" fill="#ccf381ff" rx="2.7105263157894735" transform="rotate(45, 300, 218.1818181818182)"></rect><rect width="36.36363636363637" height="5.421052631578947" x="381.8181818181818" y="215.4712918660287" stroke="none" fill="#7431d4ff" rx="2.7105263157894735" transform="rotate(45, 400, 218.1818181818182)"></rect><rect width="5.421052631578947" height="36.36363636363637" x="397.2894736842105" y="200" stroke="none" fill="#7431d4ff" rx="2.7105263157894735" transform="rotate(45, 400, 218.1818181818182)"></rect><rect width="36.36363636363637" height="5.421052631578947" x="481.8181818181818" y="215.4712918660287" stroke="none" fill="#ccf381ff" rx="2.7105263157894735" transform="rotate(45, 500, 218.1818181818182)"></rect><rect width="5.421052631578947" height="36.36363636363637" x="497.2894736842105" y="200" stroke="none" fill="#ccf381ff" rx="2.7105263157894735" transform="rotate(45, 500, 218.1818181818182)"></rect><rect width="36.36363636363637" height="5.421052631578947" x="581.8181818181819" y="215.4712918660287" stroke="none" fill="#7431d4ff" rx="2.7105263157894735" transform="rotate(45, 600, 218.1818181818182)"></rect><rect width="5.421052631578947" height="36.36363636363637" x="597.2894736842105" y="200" stroke="none" fill="#7431d4ff" rx="2.7105263157894735" transform="rotate(45, 600, 218.1818181818182)"></rect><rect width="36.36363636363637" height="5.421052631578947" x="681.8181818181819" y="215.4712918660287" stroke="none" fill="#ccf381ff" rx="2.7105263157894735" transform="rotate(45, 700, 218.1818181818182)"></rect><rect width="5.421052631578947" height="36.36363636363637" x="697.2894736842105" y="200" stroke="none" fill="#ccf381ff" rx="2.7105263157894735" transform="rotate(45, 700, 218.1818181818182)"></rect><rect width="36.36363636363637" height="5.421052631578947" x="781.8181818181819" y="215.4712918660287" stroke="none" fill="#7431d4ff" rx="2.7105263157894735" transform="rotate(45, 800, 218.1818181818182)"></rect><rect width="5.421052631578947" height="36.36363636363637" x="797.2894736842105" y="200" stroke="none" fill="#7431d4ff" rx="2.7105263157894735" transform="rotate(45, 800, 218.1818181818182)"></rect><rect width="36.36363636363637" height="5.421052631578947" x="-18.181818181818183" y="288.19856459330146" stroke="none" fill="#ccf381ff" rx="2.7105263157894735" transform="rotate(45, 0, 290.90909090909093)"></rect><rect width="5.421052631578947" height="36.36363636363637" x="-2.7105263157894735" y="272.72727272727275" stroke="none" fill="#ccf381ff" rx="2.7105263157894735" transform="rotate(45, 0, 290.90909090909093)"></rect><rect width="36.36363636363637" height="5.421052631578947" x="81.81818181818181" y="288.19856459330146" stroke="none" fill="#7431d4ff" rx="2.7105263157894735" transform="rotate(45, 100, 290.90909090909093)"></rect><rect width="5.421052631578947" height="36.36363636363637" x="97.28947368421052" y="272.72727272727275" stroke="none" fill="#7431d4ff" rx="2.7105263157894735" transform="rotate(45, 100, 290.90909090909093)"></rect><rect width="36.36363636363637" height="5.421052631578947" x="181.8181818181818" y="288.19856459330146" stroke="none" fill="#ccf381ff" rx="2.7105263157894735" transform="rotate(45, 200, 290.90909090909093)"></rect><rect width="5.421052631578947" height="36.36363636363637" x="197.28947368421052" y="272.72727272727275" stroke="none" fill="#ccf381ff" rx="2.7105263157894735" transform="rotate(45, 200, 290.90909090909093)"></rect><rect width="36.36363636363637" height="5.421052631578947" x="281.8181818181818" y="288.19856459330146" stroke="none" fill="#7431d4ff" rx="2.7105263157894735" transform="rotate(45, 300, 290.90909090909093)"></rect><rect width="5.421052631578947" height="36.36363636363637" x="297.2894736842105" y="272.72727272727275" stroke="none" fill="#7431d4ff" rx="2.7105263157894735" transform="rotate(45, 300, 290.90909090909093)"></rect><rect width="36.36363636363637" height="5.421052631578947" x="381.8181818181818" y="288.19856459330146" stroke="none" fill="#ccf381ff" rx="2.7105263157894735" transform="rotate(45, 400, 290.90909090909093)"></rect><rect width="5.421052631578947" height="36.36363636363637" x="397.2894736842105" y="272.72727272727275" stroke="none" fill="#ccf381ff" rx="2.7105263157894735" transform="rotate(45, 400, 290.90909090909093)"></rect><rect width="36.36363636363637" height="5.421052631578947" x="481.8181818181818" y="288.19856459330146" stroke="none" fill="#7431d4ff" rx="2.7105263157894735" transform="rotate(45, 500, 290.90909090909093)"></rect><rect width="5.421052631578947" height="36.36363636363637" x="497.2894736842105" y="272.72727272727275" stroke="none" fill="#7431d4ff" rx="2.7105263157894735" transform="rotate(45, 500, 290.90909090909093)"></rect><rect width="36.36363636363637" height="5.421052631578947" x="581.8181818181819" y="288.19856459330146" stroke="none" fill="#ccf381ff" rx="2.7105263157894735" transform="rotate(45, 600, 290.90909090909093)"></rect><rect width="5.421052631578947" height="36.36363636363637" x="597.2894736842105" y="272.72727272727275" stroke="none" fill="#ccf381ff" rx="2.7105263157894735" transform="rotate(45, 600, 290.90909090909093)"></rect><rect width="36.36363636363637" height="5.421052631578947" x="681.8181818181819" y="288.19856459330146" stroke="none" fill="#7431d4ff" rx="2.7105263157894735" transform="rotate(45, 700, 290.90909090909093)"></rect><rect width="5.421052631578947" height="36.36363636363637" x="697.2894736842105" y="272.72727272727275" stroke="none" fill="#7431d4ff" rx="2.7105263157894735" transform="rotate(45, 700, 290.90909090909093)"></rect><rect width="36.36363636363637" height="5.421052631578947" x="781.8181818181819" y="288.19856459330146" stroke="none" fill="#ccf381ff" rx="2.7105263157894735" transform="rotate(45, 800, 290.90909090909093)"></rect><rect width="5.421052631578947" height="36.36363636363637" x="797.2894736842105" y="272.72727272727275" stroke="none" fill="#ccf381ff" rx="2.7105263157894735" transform="rotate(45, 800, 290.90909090909093)"></rect><rect width="36.36363636363637" height="5.421052631578947" x="-18.181818181818183" y="360.9258373205742" stroke="none" fill="#7431d4ff" rx="2.7105263157894735" transform="rotate(45, 0, 363.6363636363637)"></rect><rect width="5.421052631578947" height="36.36363636363637" x="-2.7105263157894735" y="345.4545454545455" stroke="none" fill="#7431d4ff" rx="2.7105263157894735" transform="rotate(45, 0, 363.6363636363637)"></rect><rect width="36.36363636363637" height="5.421052631578947" x="81.81818181818181" y="360.9258373205742" stroke="none" fill="#ccf381ff" rx="2.7105263157894735" transform="rotate(45, 100, 363.6363636363637)"></rect><rect width="5.421052631578947" height="36.36363636363637" x="97.28947368421052" y="345.4545454545455" stroke="none" fill="#ccf381ff" rx="2.7105263157894735" transform="rotate(45, 100, 363.6363636363637)"></rect><rect width="36.36363636363637" height="5.421052631578947" x="181.8181818181818" y="360.9258373205742" stroke="none" fill="#7431d4ff" rx="2.7105263157894735" transform="rotate(45, 200, 363.6363636363637)"></rect><rect width="5.421052631578947" height="36.36363636363637" x="197.28947368421052" y="345.4545454545455" stroke="none" fill="#7431d4ff" rx="2.7105263157894735" transform="rotate(45, 200, 363.6363636363637)"></rect><rect width="36.36363636363637" height="5.421052631578947" x="281.8181818181818" y="360.9258373205742" stroke="none" fill="#ccf381ff" rx="2.7105263157894735" transform="rotate(45, 300, 363.6363636363637)"></rect><rect width="5.421052631578947" height="36.36363636363637" x="297.2894736842105" y="345.4545454545455" stroke="none" fill="#ccf381ff" rx="2.7105263157894735" transform="rotate(45, 300, 363.6363636363637)"></rect><rect width="36.36363636363637" height="5.421052631578947" x="381.8181818181818" y="360.9258373205742" stroke="none" fill="#7431d4ff" rx="2.7105263157894735" transform="rotate(45, 400, 363.6363636363637)"></rect><rect width="5.421052631578947" height="36.36363636363637" x="397.2894736842105" y="345.4545454545455" stroke="none" fill="#7431d4ff" rx="2.7105263157894735" transform="rotate(45, 400, 363.6363636363637)"></rect><rect width="36.36363636363637" height="5.421052631578947" x="481.8181818181818" y="360.9258373205742" stroke="none" fill="#ccf381ff" rx="2.7105263157894735" transform="rotate(45, 500, 363.6363636363637)"></rect><rect width="5.421052631578947" height="36.36363636363637" x="497.2894736842105" y="345.4545454545455" stroke="none" fill="#ccf381ff" rx="2.7105263157894735" transform="rotate(45, 500, 363.6363636363637)"></rect><rect width="36.36363636363637" height="5.421052631578947" x="581.8181818181819" y="360.9258373205742" stroke="none" fill="#7431d4ff" rx="2.7105263157894735" transform="rotate(45, 600, 363.6363636363637)"></rect><rect width="5.421052631578947" height="36.36363636363637" x="597.2894736842105" y="345.4545454545455" stroke="none" fill="#7431d4ff" rx="2.7105263157894735" transform="rotate(45, 600, 363.6363636363637)"></rect><rect width="36.36363636363637" height="5.421052631578947" x="681.8181818181819" y="360.9258373205742" stroke="none" fill="#ccf381ff" rx="2.7105263157894735" transform="rotate(45, 700, 363.6363636363637)"></rect><rect width="5.421052631578947" height="36.36363636363637" x="697.2894736842105" y="345.4545454545455" stroke="none" fill="#ccf381ff" rx="2.7105263157894735" transform="rotate(45, 700, 363.6363636363637)"></rect><rect width="36.36363636363637" height="5.421052631578947" x="781.8181818181819" y="360.9258373205742" stroke="none" fill="#7431d4ff" rx="2.7105263157894735" transform="rotate(45, 800, 363.6363636363637)"></rect><rect width="5.421052631578947" height="36.36363636363637" x="797.2894736842105" y="345.4545454545455" stroke="none" fill="#7431d4ff" rx="2.7105263157894735" transform="rotate(45, 800, 363.6363636363637)"></rect><rect width="36.36363636363637" height="5.421052631578947" x="-18.181818181818183" y="433.65311004784695" stroke="none" fill="#ccf381ff" rx="2.7105263157894735" transform="rotate(45, 0, 436.36363636363643)"></rect><rect width="5.421052631578947" height="36.36363636363637" x="-2.7105263157894735" y="418.18181818181824" stroke="none" fill="#ccf381ff" rx="2.7105263157894735" transform="rotate(45, 0, 436.36363636363643)"></rect><rect width="36.36363636363637" height="5.421052631578947" x="81.81818181818181" y="433.65311004784695" stroke="none" fill="#7431d4ff" rx="2.7105263157894735" transform="rotate(45, 100, 436.36363636363643)"></rect><rect width="5.421052631578947" height="36.36363636363637" x="97.28947368421052" y="418.18181818181824" stroke="none" fill="#7431d4ff" rx="2.7105263157894735" transform="rotate(45, 100, 436.36363636363643)"></rect><rect width="36.36363636363637" height="5.421052631578947" x="181.8181818181818" y="433.65311004784695" stroke="none" fill="#ccf381ff" rx="2.7105263157894735" transform="rotate(45, 200, 436.36363636363643)"></rect><rect width="5.421052631578947" height="36.36363636363637" x="197.28947368421052" y="418.18181818181824" stroke="none" fill="#ccf381ff" rx="2.7105263157894735" transform="rotate(45, 200, 436.36363636363643)"></rect><rect width="36.36363636363637" height="5.421052631578947" x="281.8181818181818" y="433.65311004784695" stroke="none" fill="#7431d4ff" rx="2.7105263157894735" transform="rotate(45, 300, 436.36363636363643)"></rect><rect width="5.421052631578947" height="36.36363636363637" x="297.2894736842105" y="418.18181818181824" stroke="none" fill="#7431d4ff" rx="2.7105263157894735" transform="rotate(45, 300, 436.36363636363643)"></rect><rect width="36.36363636363637" height="5.421052631578947" x="381.8181818181818" y="433.65311004784695" stroke="none" fill="#ccf381ff" rx="2.7105263157894735" transform="rotate(45, 400, 436.36363636363643)"></rect><rect width="5.421052631578947" height="36.36363636363637" x="397.2894736842105" y="418.18181818181824" stroke="none" fill="#ccf381ff" rx="2.7105263157894735" transform="rotate(45, 400, 436.36363636363643)"></rect><rect width="36.36363636363637" height="5.421052631578947" x="481.8181818181818" y="433.65311004784695" stroke="none" fill="#7431d4ff" rx="2.7105263157894735" transform="rotate(45, 500, 436.36363636363643)"></rect><rect width="5.421052631578947" height="36.36363636363637" x="497.2894736842105" y="418.18181818181824" stroke="none" fill="#7431d4ff" rx="2.7105263157894735" transform="rotate(45, 500, 436.36363636363643)"></rect><rect width="36.36363636363637" height="5.421052631578947" x="581.8181818181819" y="433.65311004784695" stroke="none" fill="#ccf381ff" rx="2.7105263157894735" transform="rotate(45, 600, 436.36363636363643)"></rect><rect width="5.421052631578947" height="36.36363636363637" x="597.2894736842105" y="418.18181818181824" stroke="none" fill="#ccf381ff" rx="2.7105263157894735" transform="rotate(45, 600, 436.36363636363643)"></rect><rect width="36.36363636363637" height="5.421052631578947" x="681.8181818181819" y="433.65311004784695" stroke="none" fill="#7431d4ff" rx="2.7105263157894735" transform="rotate(45, 700, 436.36363636363643)"></rect><rect width="5.421052631578947" height="36.36363636363637" x="697.2894736842105" y="418.18181818181824" stroke="none" fill="#7431d4ff" rx="2.7105263157894735" transform="rotate(45, 700, 436.36363636363643)"></rect><rect width="36.36363636363637" height="5.421052631578947" x="781.8181818181819" y="433.65311004784695" stroke="none" fill="#ccf381ff" rx="2.7105263157894735" transform="rotate(45, 800, 436.36363636363643)"></rect><rect width="5.421052631578947" height="36.36363636363637" x="797.2894736842105" y="418.18181818181824" stroke="none" fill="#ccf381ff" rx="2.7105263157894735" transform="rotate(45, 800, 436.36363636363643)"></rect><rect width="36.36363636363637" height="5.421052631578947" x="-18.181818181818183" y="506.3803827751197" stroke="none" fill="#7431d4ff" rx="2.7105263157894735" transform="rotate(45, 0, 509.0909090909092)"></rect><rect width="5.421052631578947" height="36.36363636363637" x="-2.7105263157894735" y="490.909090909091" stroke="none" fill="#7431d4ff" rx="2.7105263157894735" transform="rotate(45, 0, 509.0909090909092)"></rect><rect width="36.36363636363637" height="5.421052631578947" x="81.81818181818181" y="506.3803827751197" stroke="none" fill="#ccf381ff" rx="2.7105263157894735" transform="rotate(45, 100, 509.0909090909092)"></rect><rect width="5.421052631578947" height="36.36363636363637" x="97.28947368421052" y="490.909090909091" stroke="none" fill="#ccf381ff" rx="2.7105263157894735" transform="rotate(45, 100, 509.0909090909092)"></rect><rect width="36.36363636363637" height="5.421052631578947" x="181.8181818181818" y="506.3803827751197" stroke="none" fill="#7431d4ff" rx="2.7105263157894735" transform="rotate(45, 200, 509.0909090909092)"></rect><rect width="5.421052631578947" height="36.36363636363637" x="197.28947368421052" y="490.909090909091" stroke="none" fill="#7431d4ff" rx="2.7105263157894735" transform="rotate(45, 200, 509.0909090909092)"></rect><rect width="36.36363636363637" height="5.421052631578947" x="281.8181818181818" y="506.3803827751197" stroke="none" fill="#ccf381ff" rx="2.7105263157894735" transform="rotate(45, 300, 509.0909090909092)"></rect><rect width="5.421052631578947" height="36.36363636363637" x="297.2894736842105" y="490.909090909091" stroke="none" fill="#ccf381ff" rx="2.7105263157894735" transform="rotate(45, 300, 509.0909090909092)"></rect><rect width="36.36363636363637" height="5.421052631578947" x="381.8181818181818" y="506.3803827751197" stroke="none" fill="#7431d4ff" rx="2.7105263157894735" transform="rotate(45, 400, 509.0909090909092)"></rect><rect width="5.421052631578947" height="36.36363636363637" x="397.2894736842105" y="490.909090909091" stroke="none" fill="#7431d4ff" rx="2.7105263157894735" transform="rotate(45, 400, 509.0909090909092)"></rect><rect width="36.36363636363637" height="5.421052631578947" x="481.8181818181818" y="506.3803827751197" stroke="none" fill="#ccf381ff" rx="2.7105263157894735" transform="rotate(45, 500, 509.0909090909092)"></rect><rect width="5.421052631578947" height="36.36363636363637" x="497.2894736842105" y="490.909090909091" stroke="none" fill="#ccf381ff" rx="2.7105263157894735" transform="rotate(45, 500, 509.0909090909092)"></rect><rect width="36.36363636363637" height="5.421052631578947" x="581.8181818181819" y="506.3803827751197" stroke="none" fill="#7431d4ff" rx="2.7105263157894735" transform="rotate(45, 600, 509.0909090909092)"></rect><rect width="5.421052631578947" height="36.36363636363637" x="597.2894736842105" y="490.909090909091" stroke="none" fill="#7431d4ff" rx="2.7105263157894735" transform="rotate(45, 600, 509.0909090909092)"></rect><rect width="36.36363636363637" height="5.421052631578947" x="681.8181818181819" y="506.3803827751197" stroke="none" fill="#ccf381ff" rx="2.7105263157894735" transform="rotate(45, 700, 509.0909090909092)"></rect><rect width="5.421052631578947" height="36.36363636363637" x="697.2894736842105" y="490.909090909091" stroke="none" fill="#ccf381ff" rx="2.7105263157894735" transform="rotate(45, 700, 509.0909090909092)"></rect><rect width="36.36363636363637" height="5.421052631578947" x="781.8181818181819" y="506.3803827751197" stroke="none" fill="#7431d4ff" rx="2.7105263157894735" transform="rotate(45, 800, 509.0909090909092)"></rect><rect width="5.421052631578947" height="36.36363636363637" x="797.2894736842105" y="490.909090909091" stroke="none" fill="#7431d4ff" rx="2.7105263157894735" transform="rotate(45, 800, 509.0909090909092)"></rect><rect width="36.36363636363637" height="5.421052631578947" x="-18.181818181818183" y="579.1076555023924" stroke="none" fill="#ccf381ff" rx="2.7105263157894735" transform="rotate(45, 0, 581.8181818181819)"></rect><rect width="5.421052631578947" height="36.36363636363637" x="-2.7105263157894735" y="563.6363636363637" stroke="none" fill="#ccf381ff" rx="2.7105263157894735" transform="rotate(45, 0, 581.8181818181819)"></rect><rect width="36.36363636363637" height="5.421052631578947" x="81.81818181818181" y="579.1076555023924" stroke="none" fill="#7431d4ff" rx="2.7105263157894735" transform="rotate(45, 100, 581.8181818181819)"></rect><rect width="5.421052631578947" height="36.36363636363637" x="97.28947368421052" y="563.6363636363637" stroke="none" fill="#7431d4ff" rx="2.7105263157894735" transform="rotate(45, 100, 581.8181818181819)"></rect><rect width="36.36363636363637" height="5.421052631578947" x="181.8181818181818" y="579.1076555023924" stroke="none" fill="#ccf381ff" rx="2.7105263157894735" transform="rotate(45, 200, 581.8181818181819)"></rect><rect width="5.421052631578947" height="36.36363636363637" x="197.28947368421052" y="563.6363636363637" stroke="none" fill="#ccf381ff" rx="2.7105263157894735" transform="rotate(45, 200, 581.8181818181819)"></rect><rect width="36.36363636363637" height="5.421052631578947" x="281.8181818181818" y="579.1076555023924" stroke="none" fill="#7431d4ff" rx="2.7105263157894735" transform="rotate(45, 300, 581.8181818181819)"></rect><rect width="5.421052631578947" height="36.36363636363637" x="297.2894736842105" y="563.6363636363637" stroke="none" fill="#7431d4ff" rx="2.7105263157894735" transform="rotate(45, 300, 581.8181818181819)"></rect><rect width="36.36363636363637" height="5.421052631578947" x="381.8181818181818" y="579.1076555023924" stroke="none" fill="#ccf381ff" rx="2.7105263157894735" transform="rotate(45, 400, 581.8181818181819)"></rect><rect width="5.421052631578947" height="36.36363636363637" x="397.2894736842105" y="563.6363636363637" stroke="none" fill="#ccf381ff" rx="2.7105263157894735" transform="rotate(45, 400, 581.8181818181819)"></rect><rect width="36.36363636363637" height="5.421052631578947" x="481.8181818181818" y="579.1076555023924" stroke="none" fill="#7431d4ff" rx="2.7105263157894735" transform="rotate(45, 500, 581.8181818181819)"></rect><rect width="5.421052631578947" height="36.36363636363637" x="497.2894736842105" y="563.6363636363637" stroke="none" fill="#7431d4ff" rx="2.7105263157894735" transform="rotate(45, 500, 581.8181818181819)"></rect><rect width="36.36363636363637" height="5.421052631578947" x="581.8181818181819" y="579.1076555023924" stroke="none" fill="#ccf381ff" rx="2.7105263157894735" transform="rotate(45, 600, 581.8181818181819)"></rect><rect width="5.421052631578947" height="36.36363636363637" x="597.2894736842105" y="563.6363636363637" stroke="none" fill="#ccf381ff" rx="2.7105263157894735" transform="rotate(45, 600, 581.8181818181819)"></rect><rect width="36.36363636363637" height="5.421052631578947" x="681.8181818181819" y="579.1076555023924" stroke="none" fill="#7431d4ff" rx="2.7105263157894735" transform="rotate(45, 700, 581.8181818181819)"></rect><rect width="5.421052631578947" height="36.36363636363637" x="697.2894736842105" y="563.6363636363637" stroke="none" fill="#7431d4ff" rx="2.7105263157894735" transform="rotate(45, 700, 581.8181818181819)"></rect><rect width="36.36363636363637" height="5.421052631578947" x="781.8181818181819" y="579.1076555023924" stroke="none" fill="#ccf381ff" rx="2.7105263157894735" transform="rotate(45, 800, 581.8181818181819)"></rect><rect width="5.421052631578947" height="36.36363636363637" x="797.2894736842105" y="563.6363636363637" stroke="none" fill="#ccf381ff" rx="2.7105263157894735" transform="rotate(45, 800, 581.8181818181819)"></rect><rect width="36.36363636363637" height="5.421052631578947" x="-18.181818181818183" y="651.8349282296651" stroke="none" fill="#7431d4ff" rx="2.7105263157894735" transform="rotate(45, 0, 654.5454545454546)"></rect><rect width="5.421052631578947" height="36.36363636363637" x="-2.7105263157894735" y="636.3636363636365" stroke="none" fill="#7431d4ff" rx="2.7105263157894735" transform="rotate(45, 0, 654.5454545454546)"></rect><rect width="36.36363636363637" height="5.421052631578947" x="81.81818181818181" y="651.8349282296651" stroke="none" fill="#ccf381ff" rx="2.7105263157894735" transform="rotate(45, 100, 654.5454545454546)"></rect><rect width="5.421052631578947" height="36.36363636363637" x="97.28947368421052" y="636.3636363636365" stroke="none" fill="#ccf381ff" rx="2.7105263157894735" transform="rotate(45, 100, 654.5454545454546)"></rect><rect width="36.36363636363637" height="5.421052631578947" x="181.8181818181818" y="651.8349282296651" stroke="none" fill="#7431d4ff" rx="2.7105263157894735" transform="rotate(45, 200, 654.5454545454546)"></rect><rect width="5.421052631578947" height="36.36363636363637" x="197.28947368421052" y="636.3636363636365" stroke="none" fill="#7431d4ff" rx="2.7105263157894735" transform="rotate(45, 200, 654.5454545454546)"></rect><rect width="36.36363636363637" height="5.421052631578947" x="281.8181818181818" y="651.8349282296651" stroke="none" fill="#ccf381ff" rx="2.7105263157894735" transform="rotate(45, 300, 654.5454545454546)"></rect><rect width="5.421052631578947" height="36.36363636363637" x="297.2894736842105" y="636.3636363636365" stroke="none" fill="#ccf381ff" rx="2.7105263157894735" transform="rotate(45, 300, 654.5454545454546)"></rect><rect width="36.36363636363637" height="5.421052631578947" x="381.8181818181818" y="651.8349282296651" stroke="none" fill="#7431d4ff" rx="2.7105263157894735" transform="rotate(45, 400, 654.5454545454546)"></rect><rect width="5.421052631578947" height="36.36363636363637" x="397.2894736842105" y="636.3636363636365" stroke="none" fill="#7431d4ff" rx="2.7105263157894735" transform="rotate(45, 400, 654.5454545454546)"></rect><rect width="36.36363636363637" height="5.421052631578947" x="481.8181818181818" y="651.8349282296651" stroke="none" fill="#ccf381ff" rx="2.7105263157894735" transform="rotate(45, 500, 654.5454545454546)"></rect><rect width="5.421052631578947" height="36.36363636363637" x="497.2894736842105" y="636.3636363636365" stroke="none" fill="#ccf381ff" rx="2.7105263157894735" transform="rotate(45, 500, 654.5454545454546)"></rect><rect width="36.36363636363637" height="5.421052631578947" x="581.8181818181819" y="651.8349282296651" stroke="none" fill="#7431d4ff" rx="2.7105263157894735" transform="rotate(45, 600, 654.5454545454546)"></rect><rect width="5.421052631578947" height="36.36363636363637" x="597.2894736842105" y="636.3636363636365" stroke="none" fill="#7431d4ff" rx="2.7105263157894735" transform="rotate(45, 600, 654.5454545454546)"></rect><rect width="36.36363636363637" height="5.421052631578947" x="681.8181818181819" y="651.8349282296651" stroke="none" fill="#ccf381ff" rx="2.7105263157894735" transform="rotate(45, 700, 654.5454545454546)"></rect><rect width="5.421052631578947" height="36.36363636363637" x="697.2894736842105" y="636.3636363636365" stroke="none" fill="#ccf381ff" rx="2.7105263157894735" transform="rotate(45, 700, 654.5454545454546)"></rect><rect width="36.36363636363637" height="5.421052631578947" x="781.8181818181819" y="651.8349282296651" stroke="none" fill="#7431d4ff" rx="2.7105263157894735" transform="rotate(45, 800, 654.5454545454546)"></rect><rect width="5.421052631578947" height="36.36363636363637" x="797.2894736842105" y="636.3636363636365" stroke="none" fill="#7431d4ff" rx="2.7105263157894735" transform="rotate(45, 800, 654.5454545454546)"></rect><rect width="36.36363636363637" height="5.421052631578947" x="-18.181818181818183" y="724.5622009569379" stroke="none" fill="#ccf381ff" rx="2.7105263157894735" transform="rotate(45, 0, 727.2727272727274)"></rect><rect width="5.421052631578947" height="36.36363636363637" x="-2.7105263157894735" y="709.0909090909092" stroke="none" fill="#ccf381ff" rx="2.7105263157894735" transform="rotate(45, 0, 727.2727272727274)"></rect><rect width="36.36363636363637" height="5.421052631578947" x="81.81818181818181" y="724.5622009569379" stroke="none" fill="#7431d4ff" rx="2.7105263157894735" transform="rotate(45, 100, 727.2727272727274)"></rect><rect width="5.421052631578947" height="36.36363636363637" x="97.28947368421052" y="709.0909090909092" stroke="none" fill="#7431d4ff" rx="2.7105263157894735" transform="rotate(45, 100, 727.2727272727274)"></rect><rect width="36.36363636363637" height="5.421052631578947" x="181.8181818181818" y="724.5622009569379" stroke="none" fill="#ccf381ff" rx="2.7105263157894735" transform="rotate(45, 200, 727.2727272727274)"></rect><rect width="5.421052631578947" height="36.36363636363637" x="197.28947368421052" y="709.0909090909092" stroke="none" fill="#ccf381ff" rx="2.7105263157894735" transform="rotate(45, 200, 727.2727272727274)"></rect><rect width="36.36363636363637" height="5.421052631578947" x="281.8181818181818" y="724.5622009569379" stroke="none" fill="#7431d4ff" rx="2.7105263157894735" transform="rotate(45, 300, 727.2727272727274)"></rect><rect width="5.421052631578947" height="36.36363636363637" x="297.2894736842105" y="709.0909090909092" stroke="none" fill="#7431d4ff" rx="2.7105263157894735" transform="rotate(45, 300, 727.2727272727274)"></rect><rect width="36.36363636363637" height="5.421052631578947" x="381.8181818181818" y="724.5622009569379" stroke="none" fill="#ccf381ff" rx="2.7105263157894735" transform="rotate(45, 400, 727.2727272727274)"></rect><rect width="5.421052631578947" height="36.36363636363637" x="397.2894736842105" y="709.0909090909092" stroke="none" fill="#ccf381ff" rx="2.7105263157894735" transform="rotate(45, 400, 727.2727272727274)"></rect><rect width="36.36363636363637" height="5.421052631578947" x="481.8181818181818" y="724.5622009569379" stroke="none" fill="#7431d4ff" rx="2.7105263157894735" transform="rotate(45, 500, 727.2727272727274)"></rect><rect width="5.421052631578947" height="36.36363636363637" x="497.2894736842105" y="709.0909090909092" stroke="none" fill="#7431d4ff" rx="2.7105263157894735" transform="rotate(45, 500, 727.2727272727274)"></rect><rect width="36.36363636363637" height="5.421052631578947" x="581.8181818181819" y="724.5622009569379" stroke="none" fill="#ccf381ff" rx="2.7105263157894735" transform="rotate(45, 600, 727.2727272727274)"></rect><rect width="5.421052631578947" height="36.36363636363637" x="597.2894736842105" y="709.0909090909092" stroke="none" fill="#ccf381ff" rx="2.7105263157894735" transform="rotate(45, 600, 727.2727272727274)"></rect><rect width="36.36363636363637" height="5.421052631578947" x="681.8181818181819" y="724.5622009569379" stroke="none" fill="#7431d4ff" rx="2.7105263157894735" transform="rotate(45, 700, 727.2727272727274)"></rect><rect width="5.421052631578947" height="36.36363636363637" x="697.2894736842105" y="709.0909090909092" stroke="none" fill="#7431d4ff" rx="2.7105263157894735" transform="rotate(45, 700, 727.2727272727274)"></rect><rect width="36.36363636363637" height="5.421052631578947" x="781.8181818181819" y="724.5622009569379" stroke="none" fill="#ccf381ff" rx="2.7105263157894735" transform="rotate(45, 800, 727.2727272727274)"></rect><rect width="5.421052631578947" height="36.36363636363637" x="797.2894736842105" y="709.0909090909092" stroke="none" fill="#ccf381ff" rx="2.7105263157894735" transform="rotate(45, 800, 727.2727272727274)"></rect><rect width="36.36363636363637" height="5.421052631578947" x="-18.181818181818183" y="797.2894736842106" stroke="none" fill="#7431d4ff" rx="2.7105263157894735" transform="rotate(45, 0, 800.0000000000001)"></rect><rect width="5.421052631578947" height="36.36363636363637" x="-2.7105263157894735" y="781.818181818182" stroke="none" fill="#7431d4ff" rx="2.7105263157894735" transform="rotate(45, 0, 800.0000000000001)"></rect><rect width="36.36363636363637" height="5.421052631578947" x="81.81818181818181" y="797.2894736842106" stroke="none" fill="#ccf381ff" rx="2.7105263157894735" transform="rotate(45, 100, 800.0000000000001)"></rect><rect width="5.421052631578947" height="36.36363636363637" x="97.28947368421052" y="781.818181818182" stroke="none" fill="#ccf381ff" rx="2.7105263157894735" transform="rotate(45, 100, 800.0000000000001)"></rect><rect width="36.36363636363637" height="5.421052631578947" x="181.8181818181818" y="797.2894736842106" stroke="none" fill="#7431d4ff" rx="2.7105263157894735" transform="rotate(45, 200, 800.0000000000001)"></rect><rect width="5.421052631578947" height="36.36363636363637" x="197.28947368421052" y="781.818181818182" stroke="none" fill="#7431d4ff" rx="2.7105263157894735" transform="rotate(45, 200, 800.0000000000001)"></rect><rect width="36.36363636363637" height="5.421052631578947" x="281.8181818181818" y="797.2894736842106" stroke="none" fill="#ccf381ff" rx="2.7105263157894735" transform="rotate(45, 300, 800.0000000000001)"></rect><rect width="5.421052631578947" height="36.36363636363637" x="297.2894736842105" y="781.818181818182" stroke="none" fill="#ccf381ff" rx="2.7105263157894735" transform="rotate(45, 300, 800.0000000000001)"></rect><rect width="36.36363636363637" height="5.421052631578947" x="381.8181818181818" y="797.2894736842106" stroke="none" fill="#7431d4ff" rx="2.7105263157894735" transform="rotate(45, 400, 800.0000000000001)"></rect><rect width="5.421052631578947" height="36.36363636363637" x="397.2894736842105" y="781.818181818182" stroke="none" fill="#7431d4ff" rx="2.7105263157894735" transform="rotate(45, 400, 800.0000000000001)"></rect><rect width="36.36363636363637" height="5.421052631578947" x="481.8181818181818" y="797.2894736842106" stroke="none" fill="#ccf381ff" rx="2.7105263157894735" transform="rotate(45, 500, 800.0000000000001)"></rect><rect width="5.421052631578947" height="36.36363636363637" x="497.2894736842105" y="781.818181818182" stroke="none" fill="#ccf381ff" rx="2.7105263157894735" transform="rotate(45, 500, 800.0000000000001)"></rect><rect width="36.36363636363637" height="5.421052631578947" x="581.8181818181819" y="797.2894736842106" stroke="none" fill="#7431d4ff" rx="2.7105263157894735" transform="rotate(45, 600, 800.0000000000001)"></rect><rect width="5.421052631578947" height="36.36363636363637" x="597.2894736842105" y="781.818181818182" stroke="none" fill="#7431d4ff" rx="2.7105263157894735" transform="rotate(45, 600, 800.0000000000001)"></rect><rect width="36.36363636363637" height="5.421052631578947" x="681.8181818181819" y="797.2894736842106" stroke="none" fill="#ccf381ff" rx="2.7105263157894735" transform="rotate(45, 700, 800.0000000000001)"></rect><rect width="5.421052631578947" height="36.36363636363637" x="697.2894736842105" y="781.818181818182" stroke="none" fill="#ccf381ff" rx="2.7105263157894735" transform="rotate(45, 700, 800.0000000000001)"></rect><rect width="36.36363636363637" height="5.421052631578947" x="781.8181818181819" y="797.2894736842106" stroke="none" fill="#7431d4ff" rx="2.7105263157894735" transform="rotate(45, 800, 800.0000000000001)"></rect><rect width="5.421052631578947" height="36.36363636363637" x="797.2894736842105" y="781.818181818182" stroke="none" fill="#7431d4ff" rx="2.7105263157894735" transform="rotate(45, 800, 800.0000000000001)"></rect></g></svg>