<?xml version="1.0" encoding="UTF-8"?>
<!DOCTYPE svg PUBLIC "-//W3C//DTD SVG 1.1//EN" "http://www.w3.org/Graphics/SVG/1.1/DTD/svg11.dtd">
<svg xmlns="http://www.w3.org/2000/svg" version="1.1" width="591px" height="591px" style="shape-rendering:geometricPrecision; text-rendering:geometricPrecision; image-rendering:optimizeQuality; fill-rule:evenodd; clip-rule:evenodd" xmlns:xlink="http://www.w3.org/1999/xlink">
<g><path style="opacity:0.883" fill="#fefffe" d="M 94.5,246.5 C 106.746,246.143 110.412,251.643 105.5,263C 94.2891,268.154 88.7891,264.654 89,252.5C 90.3597,249.977 92.193,247.977 94.5,246.5 Z"/></g>
<g><path style="opacity:0.885" fill="#fefffe" d="M 403.5,248.5 C 405.833,248.5 408.167,248.5 410.5,248.5C 410.5,275.167 410.5,301.833 410.5,328.5C 408.167,328.5 405.833,328.5 403.5,328.5C 403.665,325.15 403.498,321.817 403,318.5C 395.914,328.089 386.414,331.589 374.5,329C 360.435,324.562 353.768,314.896 354.5,300C 356.149,276.695 368.482,267.361 391.5,272C 396.549,273.717 400.382,276.884 403,281.5C 403.5,270.505 403.667,259.505 403.5,248.5 Z M 379.5,277.5 C 396.253,278.087 404.086,286.753 403,303.5C 400.576,317.256 392.409,323.423 378.5,322C 364.917,317.349 359.751,307.849 363,293.5C 365.127,284.538 370.627,279.205 379.5,277.5 Z"/></g>
<g><path style="opacity:0.915" fill="#fefffe" d="M 144.5,270.5 C 150.762,269.872 156.762,270.705 162.5,273C 164.293,274.78 165.96,276.613 167.5,278.5C 173.334,270.863 181,268.363 190.5,271C 196.333,272.833 200.167,276.667 202,282.5C 202.5,297.83 202.667,313.163 202.5,328.5C 197.5,328.5 192.5,328.5 187.5,328.5C 187.667,314.829 187.5,301.163 187,287.5C 183.692,283.673 179.526,282.506 174.5,284C 172.19,285.637 170.69,287.804 170,290.5C 169.5,303.162 169.333,315.829 169.5,328.5C 164.5,328.5 159.5,328.5 154.5,328.5C 154.667,315.496 154.5,302.496 154,289.5C 153.035,285.198 150.368,283.198 146,283.5C 141.3,283.013 138.3,285.013 137,289.5C 136.5,302.496 136.333,315.496 136.5,328.5C 131.167,328.5 125.833,328.5 120.5,328.5C 120.5,309.5 120.5,290.5 120.5,271.5C 125.5,271.5 130.5,271.5 135.5,271.5C 135.201,273.604 135.534,275.604 136.5,277.5C 138.595,274.398 141.262,272.065 144.5,270.5 Z"/></g>
<g><path style="opacity:0.841" fill="#fefffe" d="M 238.5,270.5 C 253.49,268.239 263.99,273.906 270,287.5C 270.865,292.67 268.699,294.503 263.5,293C 261.205,283.263 255.038,278.096 245,277.5C 231.347,278.82 224.18,286.32 223.5,300C 225.589,317.54 235.256,324.54 252.5,321C 258.533,318.464 262.2,313.964 263.5,307.5C 266.244,306.509 268.911,306.843 271.5,308.5C 265.167,326.835 252.501,333.335 233.5,328C 221.456,322.585 215.789,313.252 216.5,300C 216.103,284.249 223.436,274.416 238.5,270.5 Z"/></g>
<g><path style="opacity:0.852" fill="#fefffe" d="M 306.5,270.5 C 334.62,270.811 345.453,284.811 339,312.5C 330.92,327.948 318.42,333.114 301.5,328C 289.456,322.585 283.789,313.252 284.5,300C 284.103,284.249 291.436,274.416 306.5,270.5 Z M 308.5,277.5 C 320.373,276.345 328.206,281.345 332,292.5C 334.572,302.886 332.072,311.719 324.5,319C 305.609,326.387 294.609,320.054 291.5,300C 291.782,288.241 297.449,280.741 308.5,277.5 Z"/></g>
<g><path style="opacity:0.844" fill="#fefffe" d="M 449.5,270.5 C 471.854,269.521 482.521,280.188 481.5,302.5C 466.167,302.5 450.833,302.5 435.5,302.5C 437.943,318.897 447.276,325.064 463.5,321C 464.833,320.333 466.167,319.667 467.5,319C 469.724,316.035 472.058,313.202 474.5,310.5C 476.167,311.167 477.833,311.833 479.5,312.5C 478.519,320.021 474.186,325.187 466.5,328C 452.869,332.219 441.369,329.053 432,318.5C 426,306.167 426,293.833 432,281.5C 436.578,275.638 442.411,271.972 449.5,270.5 Z M 451.5,277.5 C 464.639,276.654 471.972,282.654 473.5,295.5C 460.833,295.5 448.167,295.5 435.5,295.5C 437.004,286 442.338,280 451.5,277.5 Z"/></g>
<g><path style="opacity:0.94" fill="#fefffe" d="M 90.5,271.5 C 95.5,271.5 100.5,271.5 105.5,271.5C 105.667,294.836 105.5,318.169 105,341.5C 103.928,345.573 101.428,348.407 97.5,350C 91.5092,350.499 85.5092,350.666 79.5,350.5C 79.5,346.167 79.5,341.833 79.5,337.5C 82.5184,337.665 85.5184,337.498 88.5,337C 89,336.5 89.5,336 90,335.5C 90.5,314.169 90.6666,292.836 90.5,271.5 Z"/></g>
<g><path style="opacity:0.828" fill="#fefffe" d="M 497.5,315.5 C 505.098,315.334 507.931,319.001 506,326.5C 502.341,330.115 498.341,330.448 494,327.5C 491.454,322.34 492.621,318.34 497.5,315.5 Z"/></g>
</svg>
