<svg xmlns="http://www.w3.org/2000/svg" version="1.1" xmlns:xlink="http://www.w3.org/1999/xlink" xmlns:svgjs="http://svgjs.dev/svgjs" viewBox="0 0 1422 800"><g fill="hsl(158, 100%, 67%)"><path d="M1172 296H1222C1250 296 1272 318 1272 346H1222C1194 346 1172 324 1172 296Z " transform="matrix(-0.19655421655381083,0.22610976102958064,-0.22610976102958064,-0.19655421655381083,1534.7704859192525,107.78777553562577)" opacity="0.46"></path><path d="M543 163H593C621 163 643 185 643 213H593C565 213 543 191 543 163Z " transform="matrix(-0.3648551431647311,-0.21064921512137702,0.21064921512137702,-0.3648551431647311,769.7570474538667,381.507751481946)" opacity="0.65"></path><path d="M222 705H272C300 705 322 727 322 755H272C244 755 222 733 222 705Z " transform="matrix(-0.2849153686515106,-0.35184117860088665,0.35184117860088665,-0.2849153686515106,92.65291989456367,1033.689019695044)" opacity="0.70"></path><path d="M139 441H189C217 441 239 463 239 491H189C161 491 139 469 139 441Z " transform="matrix(-0.2688431466211856,-0.3700308464519806,0.3700308464519806,-0.2688431466211856,67.37698026478112,661.2167363048968)" opacity="0.70"></path><path d="M338 716H388C416 716 438 738 438 766H388C360 766 338 744 338 716Z " transform="matrix(-0.3139397158753888,-0.3139397158753887,0.3139397158753887,-0.3139397158753888,277.17928029598784,1095.437939223314)" opacity="0.68"></path><path d="M676 162H726C754 162 776 184 776 212H726C698 212 676 190 676 162Z " transform="matrix(-0.3814058404823823,-0.13132856274803753,0.13132856274803753,-0.3814058404823823,978.3421989563265,353.66742872528073)" opacity="0.62"></path><path d="M937 440H987C1015 440 1037 462 1037 490H987C959 490 937 468 937 440Z " transform="matrix(-0.33762876317345697,0.09681348993944232,-0.09681348993944232,-0.33762876317345697,1365.2578620740428,526.4424603054279)" opacity="0.54"></path><path d="M1048 354H1098C1126 354 1148 376 1148 404H1098C1070 404 1048 382 1048 354Z " transform="matrix(-0.27279741315034983,0.17715671150447557,-0.17715671150447557,-0.27279741315034983,1464.6739532992804,287.8721503520684)" opacity="0.50"></path><path d="M1298 28H1348C1376 28 1398 50 1398 78H1348C1320 78 1298 56 1298 28Z " transform="matrix(-0.0866147842315408,0.25154759853278535,-0.25154759853278535,-0.0866147842315408,1478.0887518663546,-281.495579257923)" opacity="0.41"></path><path d="M1303 135H1353C1381 135 1403 157 1403 185H1353C1325 185 1303 163 1303 135Z " transform="matrix(-0.10643696859477621,0.25074978427511213,-0.25074978427511213,-0.10643696859477621,1537.12918399275,-162.23454314906246)" opacity="0.42"></path><path d="M1 695H51C79 695 101 717 101 745H51C23 745 1 723 1 695Z " transform="matrix(-0.2578622229766951,-0.38229646703917686,0.38229646703917686,-0.2578622229766951,-211.10248289639588,925.1579203622184)" opacity="0.71"></path><path d="M1144 716H1194C1222 716 1244 738 1244 766H1194C1166 766 1144 744 1144 716Z " transform="matrix(-0.21631391277009795,0.21631391277009798,-0.21631391277009798,-0.21631391277009795,1612.5674212101396,643.0097975151456)" opacity="0.47"></path><path d="M1304 487H1354C1382 487 1404 509 1404 537H1354C1326 537 1304 515 1304 487Z " transform="matrix(-0.1164469299298469,0.24972124710664842,-0.24972124710664842,-0.1164469299298469,1639.5264216436167,233.4982595416796)" opacity="0.42"></path><path d="M779 612H829C857 612 879 634 879 662H829C801 662 779 640 779 612Z " transform="matrix(-0.38379028516862984,-0.05393820702826812,0.05393820702826812,-0.38379028516862984,1112.8035085277875,926.1891852788515)" opacity="0.59"></path><path d="M11 58H61C89 58 111 80 111 108H61C33 108 11 86 11 58Z " transform="matrix(-0.38272556219949333,-0.1317829793770969,0.1317829793770969,-0.38272556219949333,73.40827200587005,122.80498340456084)" opacity="0.62"></path><path d="M1303 248H1353C1381 248 1403 270 1403 298H1353C1325 298 1303 276 1303 248Z " transform="matrix(-0.1164469299298469,0.24972124710664842,-0.24972124710664842,-0.1164469299298469,1578.7265966551981,-33.0828354644471)" opacity="0.42"></path><path d="M170 569H220C248 569 270 591 270 619H220C192 619 170 597 170 569Z " transform="matrix(-0.27444102174267154,-0.36419553674382665,0.36419553674382665,-0.27444102174267154,64.04487595755472,837.1409849987889)" opacity="0.70"></path><path d="M259 185H309C337 185 359 207 359 235H309C281 235 259 213 259 185Z " transform="matrix(-0.2897784235852647,-0.34534447736402574,0.34534447736402574,-0.2897784235852647,326.0191926414014,377.56491245838953)" opacity="0.69"></path><path d="M1304 366H1354C1382 366 1404 388 1404 416H1354C1326 416 1304 394 1304 366Z " transform="matrix(-0.1164469299298469,0.24972124710664842,-0.24972124710664842,-0.1164469299298469,1609.3101507437123,98.40818102016817)" opacity="0.42"></path><path d="M141 35H191C219 35 241 57 241 85H191C163 85 141 63 141 35Z " transform="matrix(-0.3816133609342017,-0.13140001776992127,0.13140001776992127,-0.3816133609342017,256.0041508722373,107.99420505010707)" opacity="0.62"></path><path d="M1184 580H1234C1262 580 1284 602 1284 630H1234C1206 630 1184 608 1184 580Z " transform="matrix(-0.19655421655381083,0.22610976102958064,-0.22610976102958064,-0.19655421655381083,1613.344308650299,444.89585590455306)" opacity="0.46"></path><path d="M840 717H890C918 717 940 739 940 767H890C862 767 840 745 840 717Z " transform="matrix(-0.3695123891383518,0.019365323732311965,-0.019365323732311965,-0.3695123891383518,1233.2350965425087,998.9430546188994)" opacity="0.57"></path><path d="M1014 41H1064C1092 41 1114 63 1114 91H1064C1036 91 1014 69 1014 41Z " transform="matrix(-0.2845644233592457,0.1642933464282511,-0.1642933464282511,-0.2845644233592457,1377.619907318502,-90.02686865794897)" opacity="0.50"></path><path d="M274 46H324C352 46 374 68 374 96H324C296 96 274 74 274 46Z " transform="matrix(-0.38381720903143346,-0.11734469687274109,0.11734469687274109,-0.38381720903143346,440.0253022482198,136.2707036279999)" opacity="0.62"></path><path d="M919 585H969C997 585 1019 607 1019 635H969C941 635 919 613 919 585Z " transform="matrix(-0.35102965063520813,0.06823325200697712,-0.06823325200697712,-0.35102965063520813,1350.7700151897727,758.0100656927161)" opacity="0.55"></path><path d="M736 279H786C814 279 836 301 836 329H786C758 329 736 307 736 279Z " transform="matrix(-0.3844571909270403,-0.0817188986127668,0.0817188986127668,-0.3844571909270403,1063.3408068903725,485.1060403514549)" opacity="0.60"></path><path d="M128 164H178C206 164 228 186 228 214H178C150 214 128 192 128 164Z " transform="matrix(-0.2688431466211856,-0.3700308464519806,0.3700308464519806,-0.2688431466211856,155.9182501191467,305.6768453798566)" opacity="0.70"></path><path d="M427 398H477C505 398 527 420 527 448H477C449 448 427 426 427 398Z " transform="matrix(-0.33361510951172474,-0.27993631534645613,0.27993631534645613,-0.33361510951172474,517.7213458455417,697.6488137437191)" opacity="0.67"></path><path d="M983 718H1033C1061 718 1083 740 1083 768H1033C1005 768 983 746 983 718Z " transform="matrix(-0.32400315143188135,0.11792750292964975,-0.11792750292964975,-0.32400315143188135,1455.3153901058631,861.9152309875597)" opacity="0.53"></path><path d="M1175 435H1225C1253 435 1275 457 1275 485H1225C1197 485 1175 463 1175 435Z " transform="matrix(-0.19655421655381083,0.22610976102958064,-0.22610976102958064,-0.19655421655381083,1569.7894053520256,273.4304823535167)" opacity="0.46"></path><path d="M1168 159H1218C1246 159 1268 181 1268 209H1218C1190 209 1168 187 1168 159Z " transform="matrix(-0.19655421655381083,0.22610976102958064,-0.22610976102958064,-0.19655421655381083,1499.0072317919844,-55.235713088127994)" opacity="0.46"></path><path d="M692 409H742C770 409 792 431 792 459H742C714 459 692 437 692 409Z " transform="matrix(-0.3847510699163824,-0.10309373847110491,0.10309373847110491,-0.3847510699163824,982.7426113814962,677.4775182892699)" opacity="0.61"></path><path d="M849 36H899C927 36 949 58 949 86H899C871 86 849 64 849 36Z " transform="matrix(-0.3463932667978561,0.07997118692369554,-0.07997118692369554,-0.3463932667978561,1215.285789253618,10.235892230266934)" opacity="0.54"></path></g><g fill="none" stroke-width="3" stroke="hsl(158, 100%, 67%)"><path d="M1054 620H1104C1132 620 1154 642 1154 670H1104C1076 670 1054 648 1054 620Z " transform="matrix(-0.27279741315034983,0.17715671150447557,-0.17715671150447557,-0.27279741315034983,1519.4344230383729,625.3733219810347)" opacity="0.50"></path><path d="M564 718H614C642 718 664 740 664 768H614C586 768 564 746 564 718Z " transform="matrix(-0.3648551431647311,-0.21064921512137702,0.21064921512137702,-0.3648551431647311,681.5086910679618,1143.4259894559207)" opacity="0.65"></path><path d="M552 38H602C630 38 652 60 652 88H602C574 88 552 66 552 38Z " transform="matrix(-0.38368080729796455,-0.06765327830663652,0.06765327830663652,-0.38368080729796455,828.7136894600565,127.89916440036696)" opacity="0.60"></path><path d="M412 37H462C490 37 512 59 512 87H462C434 87 412 65 412 37Z " transform="matrix(-0.38531461623731483,-0.09606972373273623,0.09606972373273623,-0.38531461623731483,634.0590298302097,130.27371857123765)" opacity="0.61"></path><path d="M14 227H64C92 227 114 249 114 277H64C36 277 14 255 14 227Z " transform="matrix(-0.25767975163942936,-0.38202594215667435,0.38202594215667435,-0.25767975163942936,-15.779033318558461,341.38495771116334)" opacity="0.71"></path><path d="M318 305H368C396 305 418 327 418 355H368C340 355 318 333 318 305Z " transform="matrix(-0.30446745923561475,-0.32650137650498845,0.32650137650498845,-0.30446745923561475,372.29857075206,550.6267681015886)" opacity="0.69"></path><path d="M465 276H515C543 276 565 298 565 326H515C487 326 465 304 465 276Z " transform="matrix(-0.34523597988596655,-0.2601539708842767,0.2601539708842767,-0.34523597988596655,614.4901844051055,538.8953249510785)" opacity="0.66"></path><path d="M939 141H989C1017 141 1039 163 1039 191H989C961 191 939 169 939 141Z " transform="matrix(-0.3333782474233638,0.10192395876823902,-0.10192395876823902,-0.3333782474233638,1335.6304638572344,120.53799385049001)" opacity="0.53"></path><path d="M597 301H647C675 301 697 323 697 351H647C619 351 597 329 597 301Z " transform="matrix(-0.3683430111297309,-0.195851453104267,0.195851453104267,-0.3683430111297309,821.4703544889448,572.795711786753)" opacity="0.64"></path><path d="M16 378H66C94 378 116 400 116 428H66C38 428 16 406 16 378Z " transform="matrix(-0.25767975163942936,-0.38202594215667435,0.38202594215667435,-0.25767975163942936,-70.94959108093744,532.0586520930306)" opacity="0.71"></path><path d="M1312 606H1362C1390 606 1412 628 1412 656H1362C1334 656 1312 634 1312 606Z " transform="matrix(-0.1164469299298469,0.24972124710664842,-0.24972124710664842,-0.1164469299298469,1678.1748254887466,364.35767422647825)" opacity="0.42"></path><path d="M311 583H361C389 583 411 605 411 633H361C333 633 311 611 311 583Z " transform="matrix(-0.30446745923561475,-0.32650137650498845,0.32650137650498845,-0.30446745923561475,272.39991586902397,910.9832121335545)" opacity="0.69"></path><path d="M828 361H878C906 361 928 383 928 411H878C850 411 828 389 828 361Z " transform="matrix(-0.3759742711129984,-0.006562655313616548,0.006562655313616548,-0.3759742711129984,1205.5722250861565,536.8880800149727)" opacity="0.58"></path><path d="M395 162H445C473 162 495 184 495 212H445C417 212 395 190 395 162Z " transform="matrix(-0.32588401601352335,-0.2934272859905985,0.2934272859905985,-0.32588401601352335,535.147484645776,378.5154532603452)" opacity="0.67"></path><path d="M807 491H857C885 491 907 513 907 541H857C829 541 807 519 807 491Z " transform="matrix(-0.3804318841754467,-0.03328347710915886,0.03328347710915886,-0.3804318841754467,1165.8558505500318,740.8267921170797)" opacity="0.59"></path><path d="M669 546H719C747 546 769 568 769 596H719C691 596 669 574 669 546Z " transform="matrix(-0.3814058404823823,-0.13132856274803753,0.13132856274803753,-0.3814058404823823,918.2421899777034,883.2079715312793)" opacity="0.62"></path><path d="M690 706H740C768 706 790 728 790 756H740C712 756 690 734 690 706Z " transform="matrix(-0.3814058404823823,-0.13132856274803753,0.13132856274803753,-0.3814058404823823,926.2391425881476,1106.990805826169)" opacity="0.62"></path><path d="M553 590H603C631 590 653 612 653 640H603C575 640 553 618 553 590Z " transform="matrix(-0.3648551431647311,-0.21064921512137702,0.21064921512137702,-0.3648551431647311,693.4583840286859,966.4073897645001)" opacity="0.65"></path><path d="M925 281H975C1003 281 1025 303 1025 331H975C947 331 925 309 925 281Z " transform="matrix(-0.35102965063520813,0.06823325200697712,-0.06823325200697712,-0.35102965063520813,1338.1332844834628,346.887652387571)" opacity="0.55"></path><path d="M1051 206H1101C1129 206 1151 228 1151 256H1101C1073 256 1051 234 1051 206Z " transform="matrix(-0.27279741315034983,0.17715671150447557,-0.17715671150447557,-0.27279741315034983,1442.273152236069,98.96666307130323)" opacity="0.50"></path><path d="M107 699H157C185 699 207 721 207 749H157C129 749 107 727 107 699Z " transform="matrix(-0.26301247184721893,-0.3756207374169219,0.3756207374169219,-0.26301247184721893,-73.65645580983812,973.3934853918431)" opacity="0.70"></path><path d="M283 443H333C361 443 383 465 383 493H333C305 493 283 471 283 443Z " transform="matrix(-0.3002483180336254,-0.33345953956455976,0.33345953956455976,-0.3002483180336254,276.9236253889833,719.5582395147351)" opacity="0.69"></path><path d="M20 540H70C98 540 120 562 120 590H70C42 590 20 568 20 540Z " transform="matrix(-0.25767975163942936,-0.38202594215667435,0.38202594215667435,-0.25767975163942936,-127.80707470376097,737.3308756272447)" opacity="0.71"></path><path d="M163 307H213C241 307 263 329 263 357H213C185 357 163 335 163 307Z " transform="matrix(-0.27444102174267154,-0.36419553674382665,0.36419553674382665,-0.27444102174267154,150.5430194322386,500.688068545002)" opacity="0.70"></path><path d="M1293 718H1343C1371 718 1393 740 1393 768H1343C1315 768 1293 746 1293 718Z " transform="matrix(-0.1164469299298469,0.24972124710664842,-0.24972124710664842,-0.1164469299298469,1684.9311134960244,494.1444340736474)" opacity="0.42"></path><path d="M556 442H606C634 442 656 464 656 492H606C578 492 556 470 556 442Z " transform="matrix(-0.3648551431647311,-0.21064921512137702,0.21064921512137702,-0.3648551431647311,728.7290332961439,765.0407762214841)" opacity="0.65"></path><path d="M1153 37H1203C1231 37 1253 59 1253 87H1203C1175 87 1153 65 1153 37Z " transform="matrix(-0.19145943304623778,0.22817246716890444,-0.22817246716890444,-0.19145943304623778,1447.4723909190961,-200.62099315532532)" opacity="0.46"></path><path d="M446 688H496C524 688 546 710 546 738H496C468 738 446 716 446 688Z " transform="matrix(-0.33361510951172474,-0.27993631534645613,0.27993631534645613,-0.33361510951172474,461.8785014757923,1089.715985493702)" opacity="0.67"></path><path d="M1055 497H1105C1133 497 1155 519 1155 547H1105C1077 547 1055 525 1055 497Z " transform="matrix(-0.27279741315034983,0.17715671150447557,-0.17715671150447557,-0.27279741315034983,1498.916944936473,468.6420834520371)" opacity="0.50"></path><path d="M700 38H750C778 38 800 60 800 88H750C722 88 700 66 700 38Z " transform="matrix(-0.37607706792834444,-0.006564449638702828,0.006564449638702828,-0.37607706792834444,1031.6442406190201,91.61619250851282)" opacity="0.58"></path><path d="M430 531H480C508 531 530 553 530 581H480C452 581 430 559 430 531Z " transform="matrix(-0.33361510951172474,-0.27993631534645613,0.27993631534645613,-0.33361510951172474,484.49066123299826,875.8594322548179)" opacity="0.67"></path><path d="M815 174H865C893 174 915 196 915 224H865C837 224 815 202 815 174Z " transform="matrix(-0.3759742711129984,-0.006562655313616548,0.006562655313616548,-0.3759742711129984,1188.911776105334,279.495576797765)" opacity="0.58"></path></g></svg>